<mxfile host="app.diagrams.net" modified="2020-11-06T14:04:15.735Z" agent="5.0 (Windows NT 10.0; Win64; x64) AppleWebKit/537.36 (KHTML, like Gecko) Chrome/86.0.4240.183 Safari/537.36" etag="ci5MLn5ibMTCFbrBjMZt" version="13.9.2" type="github">
  <diagram id="6a731a19-8d31-9384-78a2-239565b7b9f0" name="Page-1">
    <mxGraphModel dx="4026" dy="2096" grid="1" gridSize="10" guides="1" tooltips="1" connect="1" arrows="1" fold="1" page="0" pageScale="1" pageWidth="1169" pageHeight="827" background="#ffffff" math="0" shadow="0">
      <root>
        <mxCell id="0" />
        <mxCell id="1" parent="0" />
        <mxCell id="1749" value="&lt;div&gt;Kultur- und&amp;nbsp;&amp;nbsp;&lt;/div&gt;&lt;div&gt;Traditionsaustausch&amp;nbsp;&lt;/div&gt;&lt;div&gt;(generationübergreifendes&amp;nbsp;&amp;nbsp;&lt;/div&gt;&lt;div&gt;Kochen)&lt;/div&gt;" style="rounded=1;whiteSpace=wrap;html=1;shadow=0;labelBackgroundColor=none;strokeColor=none;strokeWidth=3;fillColor=#2F5B7C;fontFamily=Helvetica;fontSize=16;fontColor=#FFFFFF;align=center;fontStyle=1;spacing=5;arcSize=50;perimeterSpacing=2;" parent="1" vertex="1">
          <mxGeometry x="495" y="380.5" width="335" height="169.5" as="geometry" />
        </mxCell>
        <mxCell id="eZMzoH8xPnQWHPTHyq96-1782" value="selbstsicheres Kochen" style="ellipse;whiteSpace=wrap;html=1;rounded=1;shadow=0;fontSize=16;fontStyle=1;strokeColor=#6c8ebf;strokeWidth=3;fillColor=#dae8fc;spacing=5;arcSize=7;" parent="1" vertex="1">
          <mxGeometry x="-190" y="600.5" width="180" height="80" as="geometry" />
        </mxCell>
        <mxCell id="eZMzoH8xPnQWHPTHyq96-1784" value="leidenschaftliches Kochen" style="ellipse;whiteSpace=wrap;html=1;rounded=1;shadow=0;fontSize=16;fontStyle=1;strokeColor=#6c8ebf;strokeWidth=3;fillColor=#dae8fc;spacing=5;arcSize=7;" parent="1" vertex="1">
          <mxGeometry x="-590" y="400.5" width="180" height="80" as="geometry" />
        </mxCell>
        <mxCell id="eZMzoH8xPnQWHPTHyq96-1785" value="Wissen" style="ellipse;whiteSpace=wrap;html=1;rounded=1;shadow=0;fontSize=16;fontStyle=1;strokeColor=#2D7600;strokeWidth=3;fillColor=#60a917;spacing=5;arcSize=7;fontColor=#ffffff;" parent="1" vertex="1">
          <mxGeometry x="1060" y="-120" width="180" height="80" as="geometry" />
        </mxCell>
        <mxCell id="eZMzoH8xPnQWHPTHyq96-1788" value="Erfahrung" style="ellipse;whiteSpace=wrap;html=1;rounded=1;shadow=0;fontSize=16;fontColor=#ffffff;fontStyle=1;strokeColor=#006EAF;strokeWidth=3;fillColor=#1ba1e2;spacing=5;arcSize=7;" parent="1" vertex="1">
          <mxGeometry x="-290" y="400.5" width="180" height="80" as="geometry" />
        </mxCell>
        <mxCell id="eZMzoH8xPnQWHPTHyq96-1789" value="gesunde und ausgewogene Ernährung" style="ellipse;whiteSpace=wrap;html=1;rounded=1;shadow=0;fontSize=16;fontStyle=1;strokeColor=#82b366;strokeWidth=3;spacing=5;arcSize=7;fillColor=#FFFFFF;" parent="1" vertex="1">
          <mxGeometry x="960" y="-390" width="180" height="80" as="geometry" />
        </mxCell>
        <mxCell id="eZMzoH8xPnQWHPTHyq96-1790" value="gesundheitsfördernde Ernährung" style="ellipse;whiteSpace=wrap;html=1;rounded=1;shadow=0;fontSize=16;fontStyle=1;strokeColor=#82b366;strokeWidth=3;spacing=5;arcSize=7;fillColor=#FFFFFF;" parent="1" vertex="1">
          <mxGeometry x="770" y="-330" width="180" height="80" as="geometry" />
        </mxCell>
        <mxCell id="eZMzoH8xPnQWHPTHyq96-1791" value="Rezepte für Feiertage" style="ellipse;whiteSpace=wrap;html=1;rounded=1;shadow=0;fontSize=16;fontStyle=1;strokeColor=#d79b00;strokeWidth=3;spacing=5;arcSize=7;fillColor=#FAFEFF;" parent="1" vertex="1">
          <mxGeometry x="2410" y="320" width="180" height="80" as="geometry" />
        </mxCell>
        <mxCell id="eZMzoH8xPnQWHPTHyq96-1792" value="Rezepte für besondere Lebensumstände" style="ellipse;whiteSpace=wrap;html=1;rounded=1;shadow=0;fontSize=16;fontStyle=1;strokeColor=#6c8ebf;strokeWidth=3;fillColor=#dae8fc;spacing=5;arcSize=7;" parent="1" vertex="1">
          <mxGeometry x="-470" y="580.5" width="180" height="80" as="geometry" />
        </mxCell>
        <mxCell id="eZMzoH8xPnQWHPTHyq96-1793" value="Lebensumstände" style="ellipse;whiteSpace=wrap;html=1;rounded=1;shadow=0;fontSize=16;fontStyle=1;strokeColor=#6c8ebf;strokeWidth=3;spacing=5;arcSize=7;fillColor=#FFFFFF;" parent="1" vertex="1">
          <mxGeometry x="-680" y="660.5" width="180" height="80" as="geometry" />
        </mxCell>
        <mxCell id="eZMzoH8xPnQWHPTHyq96-1794" value="Krankheit" style="ellipse;whiteSpace=wrap;html=1;rounded=1;shadow=0;fontSize=16;fontStyle=1;strokeColor=#6c8ebf;strokeWidth=3;spacing=5;arcSize=7;fillColor=#FFFFFF;" parent="1" vertex="1">
          <mxGeometry x="-880" y="850.5" width="180" height="80" as="geometry" />
        </mxCell>
        <mxCell id="eZMzoH8xPnQWHPTHyq96-1795" value="Mangel" style="ellipse;whiteSpace=wrap;html=1;rounded=1;shadow=0;fontSize=16;fontStyle=1;strokeColor=#6c8ebf;strokeWidth=3;spacing=5;arcSize=7;fillColor=#FFFFFF;" parent="1" vertex="1">
          <mxGeometry x="-660" y="870.5" width="180" height="80" as="geometry" />
        </mxCell>
        <mxCell id="eZMzoH8xPnQWHPTHyq96-1796" value="Schwangerschaft" style="ellipse;whiteSpace=wrap;html=1;rounded=1;shadow=0;fontSize=16;fontStyle=1;strokeColor=#6c8ebf;strokeWidth=3;spacing=5;arcSize=7;fillColor=#FFFFFF;" parent="1" vertex="1">
          <mxGeometry x="-980" y="740.5" width="180" height="80" as="geometry" />
        </mxCell>
        <mxCell id="eZMzoH8xPnQWHPTHyq96-1797" value="Kater" style="ellipse;whiteSpace=wrap;html=1;rounded=1;shadow=0;fontSize=16;fontStyle=1;strokeColor=#6c8ebf;strokeWidth=3;spacing=5;arcSize=7;fillColor=#FFFFFF;" parent="1" vertex="1">
          <mxGeometry x="-970" y="610.5" width="180" height="80" as="geometry" />
        </mxCell>
        <mxCell id="eZMzoH8xPnQWHPTHyq96-1798" value="Technik" style="ellipse;whiteSpace=wrap;html=1;rounded=1;shadow=0;fontSize=16;fontStyle=1;strokeColor=#d79b00;strokeWidth=3;spacing=5;arcSize=7;fillColor=#FFFFFF;" parent="1" vertex="1">
          <mxGeometry x="-480" y="-261" width="180" height="80" as="geometry" />
        </mxCell>
        <mxCell id="eZMzoH8xPnQWHPTHyq96-1799" value="Generation" style="ellipse;whiteSpace=wrap;html=1;rounded=1;shadow=0;fontSize=16;fontColor=#ffffff;fontStyle=1;strokeColor=#C73500;strokeWidth=3;fillColor=#fa6800;spacing=5;arcSize=7;" parent="1" vertex="1">
          <mxGeometry x="390" y="-221" width="180" height="80" as="geometry" />
        </mxCell>
        <mxCell id="eZMzoH8xPnQWHPTHyq96-1800" value="Ältere Generation" style="ellipse;whiteSpace=wrap;html=1;rounded=1;shadow=0;fontSize=16;fontStyle=1;strokeColor=#d79b00;strokeWidth=3;spacing=5;arcSize=7;fillColor=#ffe6cc;" parent="1" vertex="1">
          <mxGeometry x="100" y="-181" width="180" height="80" as="geometry" />
        </mxCell>
        <mxCell id="eZMzoH8xPnQWHPTHyq96-1801" value="Junge Generation" style="ellipse;whiteSpace=wrap;html=1;rounded=1;shadow=0;fontSize=16;fontStyle=1;strokeColor=#d79b00;strokeWidth=3;spacing=5;arcSize=7;fillColor=#ffe6cc;" parent="1" vertex="1">
          <mxGeometry x="280" y="-441" width="180" height="80" as="geometry" />
        </mxCell>
        <mxCell id="eZMzoH8xPnQWHPTHyq96-1802" value="Wissbegierig" style="ellipse;whiteSpace=wrap;html=1;rounded=1;shadow=0;fontSize=16;fontStyle=1;strokeColor=#d79b00;strokeWidth=3;spacing=5;arcSize=7;fillColor=#FFFFFF;" parent="1" vertex="1">
          <mxGeometry x="-30" y="-531" width="180" height="80" as="geometry" />
        </mxCell>
        <mxCell id="eZMzoH8xPnQWHPTHyq96-1803" value="Erfahrungsarm" style="ellipse;whiteSpace=wrap;html=1;rounded=1;shadow=0;fontSize=16;fontStyle=1;strokeColor=#d79b00;strokeWidth=3;spacing=5;arcSize=7;fillColor=#FFFFFF;" parent="1" vertex="1">
          <mxGeometry x="-150" y="-431" width="180" height="80" as="geometry" />
        </mxCell>
        <mxCell id="eZMzoH8xPnQWHPTHyq96-1804" value="Wisssensreich" style="ellipse;whiteSpace=wrap;html=1;rounded=1;shadow=0;fontSize=16;fontStyle=1;strokeColor=#d79b00;strokeWidth=3;spacing=5;arcSize=7;fillColor=#FFFFFF;" parent="1" vertex="1">
          <mxGeometry x="-200" y="-301" width="180" height="80" as="geometry" />
        </mxCell>
        <mxCell id="eZMzoH8xPnQWHPTHyq96-1805" value="Erfahrungsreich" style="ellipse;whiteSpace=wrap;html=1;rounded=1;shadow=0;fontSize=16;fontStyle=1;strokeColor=#d79b00;strokeWidth=3;spacing=5;arcSize=7;fillColor=#FFFFFF;" parent="1" vertex="1">
          <mxGeometry x="-230" y="-181" width="180" height="80" as="geometry" />
        </mxCell>
        <mxCell id="eZMzoH8xPnQWHPTHyq96-1806" value="Traditionelle Gerichte" style="ellipse;whiteSpace=wrap;html=1;rounded=1;shadow=0;fontSize=16;fontStyle=1;strokeColor=#d79b00;strokeWidth=3;fillColor=#ffe6cc;spacing=5;arcSize=7;" parent="1" vertex="1">
          <mxGeometry x="2100" y="320" width="180" height="80" as="geometry" />
        </mxCell>
        <mxCell id="eZMzoH8xPnQWHPTHyq96-1808" value="Rezepte modifizieren/&lt;br&gt;Variationen" style="ellipse;whiteSpace=wrap;html=1;rounded=1;shadow=0;fontSize=16;fontStyle=1;strokeColor=#6c8ebf;strokeWidth=3;spacing=5;arcSize=7;fillColor=#FFFFFF;" parent="1" vertex="1">
          <mxGeometry x="-290" y="790.5" width="210" height="100" as="geometry" />
        </mxCell>
        <mxCell id="eZMzoH8xPnQWHPTHyq96-1809" value="Kinder" style="ellipse;whiteSpace=wrap;html=1;rounded=1;shadow=0;fontSize=16;fontStyle=1;strokeColor=#d79b00;strokeWidth=3;spacing=5;arcSize=7;fillColor=#FFFFFF;" parent="1" vertex="1">
          <mxGeometry x="120" y="-611" width="180" height="80" as="geometry" />
        </mxCell>
        <mxCell id="eZMzoH8xPnQWHPTHyq96-1811" value="Enkel" style="ellipse;whiteSpace=wrap;html=1;rounded=1;shadow=0;fontSize=16;fontStyle=1;strokeColor=#d79b00;strokeWidth=3;spacing=5;arcSize=7;fillColor=#FFFFFF;" parent="1" vertex="1">
          <mxGeometry x="490" y="-591" width="180" height="80" as="geometry" />
        </mxCell>
        <mxCell id="eZMzoH8xPnQWHPTHyq96-1812" value="Geschwister" style="ellipse;whiteSpace=wrap;html=1;rounded=1;shadow=0;fontSize=16;fontStyle=1;strokeColor=#d79b00;strokeWidth=3;spacing=5;arcSize=7;fillColor=#FFFFFF;" parent="1" vertex="1">
          <mxGeometry x="330" y="-651" width="180" height="80" as="geometry" />
        </mxCell>
        <mxCell id="eZMzoH8xPnQWHPTHyq96-1813" value="Großeltern" style="ellipse;whiteSpace=wrap;html=1;rounded=1;shadow=0;fontSize=16;fontStyle=1;strokeColor=#d79b00;strokeWidth=3;spacing=5;arcSize=7;fillColor=#FFFFFF;" parent="1" vertex="1">
          <mxGeometry x="140" y="29.5" width="180" height="80" as="geometry" />
        </mxCell>
        <mxCell id="eZMzoH8xPnQWHPTHyq96-1814" value="Eltern" style="ellipse;whiteSpace=wrap;html=1;rounded=1;shadow=0;fontSize=16;fontStyle=1;strokeColor=#d79b00;strokeWidth=3;spacing=5;arcSize=7;fillColor=#FFFFFF;" parent="1" vertex="1">
          <mxGeometry x="-60" y="9" width="180" height="80" as="geometry" />
        </mxCell>
        <mxCell id="eZMzoH8xPnQWHPTHyq96-1815" value="Urgroßeltern" style="ellipse;whiteSpace=wrap;html=1;rounded=1;shadow=0;fontSize=16;fontStyle=1;strokeColor=#d79b00;strokeWidth=3;spacing=5;arcSize=7;fillColor=#FFFFFF;" parent="1" vertex="1">
          <mxGeometry x="-180" y="-71" width="180" height="80" as="geometry" />
        </mxCell>
        <mxCell id="eZMzoH8xPnQWHPTHyq96-1816" value="Teilen" style="ellipse;whiteSpace=wrap;html=1;rounded=1;shadow=0;fontSize=16;fontStyle=1;strokeColor=#82b366;strokeWidth=3;spacing=5;arcSize=7;fillColor=#d5e8d4;" parent="1" vertex="1">
          <mxGeometry x="1170" y="-270" width="180" height="80" as="geometry" />
        </mxCell>
        <mxCell id="eZMzoH8xPnQWHPTHyq96-1818" value="Medium" style="ellipse;whiteSpace=wrap;html=1;rounded=1;shadow=0;fontSize=16;fontStyle=1;strokeColor=#82b366;strokeWidth=3;spacing=5;arcSize=7;fillColor=#FFFFFF;" parent="1" vertex="1">
          <mxGeometry x="1240" y="-430" width="180" height="80" as="geometry" />
        </mxCell>
        <mxCell id="eZMzoH8xPnQWHPTHyq96-1819" value="Bild" style="ellipse;whiteSpace=wrap;html=1;rounded=1;shadow=0;fontSize=16;fontStyle=1;strokeColor=#82b366;strokeWidth=3;spacing=5;arcSize=7;fillColor=#FFFFFF;" parent="1" vertex="1">
          <mxGeometry x="1070" y="-650" width="180" height="80" as="geometry" />
        </mxCell>
        <mxCell id="eZMzoH8xPnQWHPTHyq96-1820" value="Vorkochen" style="ellipse;whiteSpace=wrap;html=1;rounded=1;shadow=0;fontSize=16;fontStyle=1;strokeColor=#82b366;strokeWidth=3;spacing=5;arcSize=7;fillColor=#FFFFFF;" parent="1" vertex="1">
          <mxGeometry x="1580" y="-490" width="180" height="80" as="geometry" />
        </mxCell>
        <mxCell id="eZMzoH8xPnQWHPTHyq96-1821" value="Video" style="ellipse;whiteSpace=wrap;html=1;rounded=1;shadow=0;fontSize=16;fontStyle=1;strokeColor=#82b366;strokeWidth=3;spacing=5;arcSize=7;fillColor=#FFFFFF;" parent="1" vertex="1">
          <mxGeometry x="1410" y="-690" width="180" height="80" as="geometry" />
        </mxCell>
        <mxCell id="eZMzoH8xPnQWHPTHyq96-1822" value="Sprache" style="ellipse;whiteSpace=wrap;html=1;rounded=1;shadow=0;fontSize=16;fontStyle=1;strokeColor=#82b366;strokeWidth=3;spacing=5;arcSize=7;fillColor=#FFFFFF;" parent="1" vertex="1">
          <mxGeometry x="1550" y="-600" width="180" height="80" as="geometry" />
        </mxCell>
        <mxCell id="eZMzoH8xPnQWHPTHyq96-1823" value="Text" style="ellipse;whiteSpace=wrap;html=1;rounded=1;shadow=0;fontSize=16;fontStyle=1;strokeColor=#82b366;strokeWidth=3;spacing=5;arcSize=7;fillColor=#FFFFFF;" parent="1" vertex="1">
          <mxGeometry x="960" y="-550" width="180" height="80" as="geometry" />
        </mxCell>
        <mxCell id="eZMzoH8xPnQWHPTHyq96-1824" value="Audio" style="ellipse;whiteSpace=wrap;html=1;rounded=1;shadow=0;fontSize=16;fontStyle=1;strokeColor=#82b366;strokeWidth=3;spacing=5;arcSize=7;fillColor=#FFFFFF;" parent="1" vertex="1">
          <mxGeometry x="1230" y="-720" width="180" height="80" as="geometry" />
        </mxCell>
        <mxCell id="eZMzoH8xPnQWHPTHyq96-1825" value="Tutorial" style="ellipse;whiteSpace=wrap;html=1;rounded=1;shadow=0;fontSize=16;fontStyle=1;strokeColor=#82b366;strokeWidth=3;spacing=5;arcSize=7;fillColor=#FFFFFF;" parent="1" vertex="1">
          <mxGeometry x="1520" y="-850" width="180" height="80" as="geometry" />
        </mxCell>
        <mxCell id="eZMzoH8xPnQWHPTHyq96-1826" value="Podcast" style="ellipse;whiteSpace=wrap;html=1;rounded=1;shadow=0;fontSize=16;fontStyle=1;strokeColor=#82b366;strokeWidth=3;spacing=5;arcSize=7;fillColor=#FFFFFF;" parent="1" vertex="1">
          <mxGeometry x="1230" y="-870" width="180" height="80" as="geometry" />
        </mxCell>
        <mxCell id="eZMzoH8xPnQWHPTHyq96-1827" value="Übersetzen" style="ellipse;whiteSpace=wrap;html=1;rounded=1;shadow=0;fontSize=16;fontStyle=1;strokeColor=#82b366;strokeWidth=3;spacing=5;arcSize=7;fillColor=#FFFFFF;" parent="1" vertex="1">
          <mxGeometry x="1750" y="-680" width="180" height="80" as="geometry" />
        </mxCell>
        <mxCell id="eZMzoH8xPnQWHPTHyq96-1828" value="Tipps" style="ellipse;whiteSpace=wrap;html=1;rounded=1;shadow=0;fontSize=16;fontStyle=1;strokeColor=#6c8ebf;strokeWidth=3;spacing=5;arcSize=7;fillColor=#FFFFFF;" parent="1" vertex="1">
          <mxGeometry x="-920" y="380.5" width="180" height="80" as="geometry" />
        </mxCell>
        <mxCell id="eZMzoH8xPnQWHPTHyq96-1829" value="Tricks" style="ellipse;whiteSpace=wrap;html=1;rounded=1;shadow=0;fontSize=16;fontStyle=1;strokeColor=#6c8ebf;strokeWidth=3;spacing=5;arcSize=7;fillColor=#FFFFFF;" parent="1" vertex="1">
          <mxGeometry x="-30" y="780.5" width="180" height="80" as="geometry" />
        </mxCell>
        <mxCell id="eZMzoH8xPnQWHPTHyq96-1831" value="Kochen" style="ellipse;whiteSpace=wrap;html=1;rounded=1;shadow=0;fontSize=16;fontColor=#ffffff;fontStyle=1;strokeColor=#A50040;strokeWidth=3;fillColor=#d80073;spacing=5;arcSize=7;" parent="1" vertex="1">
          <mxGeometry x="620" y="1060" width="180" height="80" as="geometry" />
        </mxCell>
        <mxCell id="eZMzoH8xPnQWHPTHyq96-1832" value="Zutat" style="ellipse;whiteSpace=wrap;html=1;rounded=1;shadow=0;fontSize=16;fontStyle=1;strokeWidth=3;fillColor=#f8cecc;spacing=5;arcSize=7;strokeColor=#b85450;" parent="1" vertex="1">
          <mxGeometry x="-100" y="2060" width="180" height="80" as="geometry" />
        </mxCell>
        <mxCell id="eZMzoH8xPnQWHPTHyq96-1833" value="Kochbuch" style="ellipse;whiteSpace=wrap;html=1;rounded=1;shadow=0;fontSize=16;fontStyle=1;strokeColor=#b85450;strokeWidth=3;fillColor=#f8cecc;spacing=5;arcSize=7;" parent="1" vertex="1">
          <mxGeometry x="1390" y="1600" width="180" height="80" as="geometry" />
        </mxCell>
        <mxCell id="eZMzoH8xPnQWHPTHyq96-1834" value="Rezept" style="ellipse;whiteSpace=wrap;html=1;rounded=1;shadow=0;fontSize=16;fontStyle=1;strokeColor=#b85450;strokeWidth=3;fillColor=#f8cecc;spacing=5;arcSize=7;" parent="1" vertex="1">
          <mxGeometry x="-10" y="1520" width="180" height="80" as="geometry" />
        </mxCell>
        <mxCell id="eZMzoH8xPnQWHPTHyq96-1835" value="Besondere Zutaten" style="ellipse;whiteSpace=wrap;html=1;rounded=1;shadow=0;fontSize=16;fontStyle=1;strokeWidth=3;fillColor=#fff2cc;spacing=5;arcSize=7;strokeColor=#d6b656;" parent="1" vertex="1">
          <mxGeometry x="-470" y="2040" width="180" height="80" as="geometry" />
        </mxCell>
        <mxCell id="eZMzoH8xPnQWHPTHyq96-1836" value="Selten benutzte&lt;br&gt;Zutaten" style="ellipse;whiteSpace=wrap;html=1;rounded=1;shadow=0;fontSize=16;fontStyle=1;strokeWidth=3;fillColor=#fff2cc;spacing=5;arcSize=7;strokeColor=#d6b656;" parent="1" vertex="1">
          <mxGeometry x="-730" y="1930" width="180" height="80" as="geometry" />
        </mxCell>
        <mxCell id="eZMzoH8xPnQWHPTHyq96-1837" value="Schwer erhältliche Zutaten" style="ellipse;whiteSpace=wrap;html=1;rounded=1;shadow=0;fontSize=16;fontStyle=1;strokeWidth=3;fillColor=#fff2cc;spacing=5;arcSize=7;strokeColor=#d6b656;" parent="1" vertex="1">
          <mxGeometry x="-760" y="2100" width="180" height="80" as="geometry" />
        </mxCell>
        <mxCell id="eZMzoH8xPnQWHPTHyq96-1839" value="Lernen" style="ellipse;whiteSpace=wrap;html=1;rounded=1;shadow=0;fontSize=16;fontStyle=1;strokeColor=#82b366;strokeWidth=3;spacing=5;arcSize=7;fillColor=#d5e8d4;" parent="1" vertex="1">
          <mxGeometry x="1370" y="-200" width="180" height="80" as="geometry" />
        </mxCell>
        <mxCell id="eZMzoH8xPnQWHPTHyq96-1840" value="voneinander &lt;br&gt;Lernen" style="ellipse;whiteSpace=wrap;html=1;rounded=1;shadow=0;fontSize=16;fontStyle=1;strokeColor=#82b366;strokeWidth=3;spacing=5;arcSize=7;fillColor=#FFFFFF;" parent="1" vertex="1">
          <mxGeometry x="1670" y="-230" width="180" height="80" as="geometry" />
        </mxCell>
        <mxCell id="eZMzoH8xPnQWHPTHyq96-1841" value="miteinander&lt;br&gt;Lernen" style="ellipse;whiteSpace=wrap;html=1;rounded=1;shadow=0;fontSize=16;fontStyle=1;strokeColor=#82b366;strokeWidth=3;spacing=5;arcSize=7;fillColor=#FFFFFF;" parent="1" vertex="1">
          <mxGeometry x="1550" y="-330" width="180" height="80" as="geometry" />
        </mxCell>
        <mxCell id="eZMzoH8xPnQWHPTHyq96-1844" value="Familie" style="ellipse;whiteSpace=wrap;html=1;rounded=1;shadow=0;fontSize=16;fontStyle=1;strokeColor=#d79b00;strokeWidth=3;fillColor=#ffe6cc;spacing=5;arcSize=7;" parent="1" vertex="1">
          <mxGeometry x="1900" y="209.5" width="180" height="80" as="geometry" />
        </mxCell>
        <mxCell id="eZMzoH8xPnQWHPTHyq96-1846" value="Verbundenheit" style="ellipse;whiteSpace=wrap;html=1;rounded=1;shadow=0;fontSize=16;fontStyle=1;strokeColor=#d79b00;strokeWidth=3;spacing=5;arcSize=7;fillColor=#FAFEFF;" parent="1" vertex="1">
          <mxGeometry x="2020" y="60" width="180" height="80" as="geometry" />
        </mxCell>
        <mxCell id="eZMzoH8xPnQWHPTHyq96-1847" value="Erinnerung" style="ellipse;whiteSpace=wrap;html=1;rounded=1;shadow=0;fontSize=16;fontStyle=1;strokeColor=#d79b00;strokeWidth=3;spacing=5;arcSize=7;fillColor=#FAFEFF;" parent="1" vertex="1">
          <mxGeometry x="2220" y="-40.5" width="180" height="80" as="geometry" />
        </mxCell>
        <mxCell id="eZMzoH8xPnQWHPTHyq96-1848" value="Geruch" style="ellipse;whiteSpace=wrap;html=1;rounded=1;shadow=0;fontSize=16;fontStyle=1;strokeColor=#d79b00;strokeWidth=3;spacing=5;arcSize=7;fillColor=#FAFEFF;" parent="1" vertex="1">
          <mxGeometry x="2040" y="-230.5" width="180" height="80" as="geometry" />
        </mxCell>
        <mxCell id="eZMzoH8xPnQWHPTHyq96-1849" value="Geschmack" style="ellipse;whiteSpace=wrap;html=1;rounded=1;shadow=0;fontSize=16;fontStyle=1;strokeColor=#d79b00;strokeWidth=3;spacing=5;arcSize=7;fillColor=#FAFEFF;" parent="1" vertex="1">
          <mxGeometry x="2470" y="-310.5" width="180" height="80" as="geometry" />
        </mxCell>
        <mxCell id="eZMzoH8xPnQWHPTHyq96-1850" value="Fotografien" style="ellipse;whiteSpace=wrap;html=1;rounded=1;shadow=0;fontSize=16;fontStyle=1;strokeColor=#d79b00;strokeWidth=3;spacing=5;arcSize=7;fillColor=#FAFEFF;" parent="1" vertex="1">
          <mxGeometry x="2600" y="29.5" width="180" height="80" as="geometry" />
        </mxCell>
        <mxCell id="eZMzoH8xPnQWHPTHyq96-1851" value="Videos" style="ellipse;whiteSpace=wrap;html=1;rounded=1;shadow=0;fontSize=16;fontStyle=1;strokeColor=#d79b00;strokeWidth=3;spacing=5;arcSize=7;fillColor=#FAFEFF;" parent="1" vertex="1">
          <mxGeometry x="2210" y="-340" width="180" height="80" as="geometry" />
        </mxCell>
        <mxCell id="eZMzoH8xPnQWHPTHyq96-1852" value="Ton/ Geräusch" style="ellipse;whiteSpace=wrap;html=1;rounded=1;shadow=0;fontSize=16;fontStyle=1;strokeColor=#d79b00;strokeWidth=3;spacing=5;arcSize=7;fillColor=#FAFEFF;" parent="1" vertex="1">
          <mxGeometry x="2620" y="-160" width="180" height="80" as="geometry" />
        </mxCell>
        <mxCell id="eZMzoH8xPnQWHPTHyq96-1853" value="Familienkochbuch" style="ellipse;whiteSpace=wrap;html=1;rounded=1;shadow=0;fontSize=16;fontStyle=1;strokeWidth=3;fillColor=#fff2cc;spacing=5;arcSize=7;strokeColor=#d6b656;" parent="1" vertex="1">
          <mxGeometry x="1960" y="1320" width="180" height="80" as="geometry" />
        </mxCell>
        <mxCell id="eZMzoH8xPnQWHPTHyq96-1854" value="Personalsierung" style="ellipse;whiteSpace=wrap;html=1;rounded=1;shadow=0;fontSize=16;fontStyle=1;strokeWidth=3;fillColor=#fff2cc;spacing=5;arcSize=7;strokeColor=#d6b656;" parent="1" vertex="1">
          <mxGeometry x="2240" y="1210" width="180" height="80" as="geometry" />
        </mxCell>
        <mxCell id="eZMzoH8xPnQWHPTHyq96-1855" value="Individualisierung" style="ellipse;whiteSpace=wrap;html=1;rounded=1;shadow=0;fontSize=16;fontStyle=1;strokeWidth=3;fillColor=#fff2cc;spacing=5;arcSize=7;strokeColor=#d6b656;" parent="1" vertex="1">
          <mxGeometry x="2250" y="1430" width="180" height="80" as="geometry" />
        </mxCell>
        <mxCell id="eZMzoH8xPnQWHPTHyq96-1856" value="persönliche Bilder" style="ellipse;whiteSpace=wrap;html=1;rounded=1;shadow=0;fontSize=16;fontStyle=1;strokeWidth=3;fillColor=#fff2cc;spacing=5;arcSize=7;strokeColor=#d6b656;" parent="1" vertex="1">
          <mxGeometry x="2580" y="1160" width="180" height="80" as="geometry" />
        </mxCell>
        <mxCell id="eZMzoH8xPnQWHPTHyq96-1857" value="Aufbau" style="ellipse;whiteSpace=wrap;html=1;rounded=1;shadow=0;fontSize=16;fontStyle=1;strokeWidth=3;fillColor=#fff2cc;spacing=5;arcSize=7;strokeColor=#d6b656;" parent="1" vertex="1">
          <mxGeometry x="2560" y="1370" width="180" height="80" as="geometry" />
        </mxCell>
        <mxCell id="eZMzoH8xPnQWHPTHyq96-1858" value="persönliche Kommentare" style="ellipse;whiteSpace=wrap;html=1;rounded=1;shadow=0;fontSize=16;fontStyle=1;strokeWidth=3;fillColor=#fff2cc;spacing=5;arcSize=7;strokeColor=#d6b656;" parent="1" vertex="1">
          <mxGeometry x="2580" y="1260" width="180" height="80" as="geometry" />
        </mxCell>
        <mxCell id="eZMzoH8xPnQWHPTHyq96-1859" value="Medium" style="ellipse;whiteSpace=wrap;html=1;rounded=1;shadow=0;fontSize=16;fontStyle=1;strokeWidth=3;fillColor=#fff2cc;spacing=5;arcSize=7;strokeColor=#d6b656;" parent="1" vertex="1">
          <mxGeometry x="2520" y="1520" width="180" height="80" as="geometry" />
        </mxCell>
        <mxCell id="eZMzoH8xPnQWHPTHyq96-1860" value="Print" style="ellipse;whiteSpace=wrap;html=1;rounded=1;shadow=0;fontSize=16;fontStyle=1;strokeWidth=3;fillColor=#fff2cc;spacing=5;arcSize=7;strokeColor=#d6b656;" parent="1" vertex="1">
          <mxGeometry x="2790" y="1570" width="180" height="80" as="geometry" />
        </mxCell>
        <mxCell id="eZMzoH8xPnQWHPTHyq96-1861" value="Digital" style="ellipse;whiteSpace=wrap;html=1;rounded=1;shadow=0;fontSize=16;fontStyle=1;strokeWidth=3;fillColor=#fff2cc;spacing=5;arcSize=7;strokeColor=#d6b656;" parent="1" vertex="1">
          <mxGeometry x="2640" y="1670" width="180" height="80" as="geometry" />
        </mxCell>
        <mxCell id="eZMzoH8xPnQWHPTHyq96-1862" value="Wichtigkeit" style="ellipse;whiteSpace=wrap;html=1;rounded=1;shadow=0;fontSize=16;fontStyle=1;strokeWidth=3;fillColor=#fff2cc;spacing=5;arcSize=7;strokeColor=#d6b656;" parent="1" vertex="1">
          <mxGeometry x="-40" y="2510" width="180" height="80" as="geometry" />
        </mxCell>
        <mxCell id="eZMzoH8xPnQWHPTHyq96-1863" value="Austauschbar durch" style="ellipse;whiteSpace=wrap;html=1;rounded=1;shadow=0;fontSize=16;fontStyle=1;strokeWidth=3;fillColor=#fff2cc;spacing=5;arcSize=7;strokeColor=#d6b656;" parent="1" vertex="1">
          <mxGeometry x="-360" y="2150" width="180" height="80" as="geometry" />
        </mxCell>
        <mxCell id="eZMzoH8xPnQWHPTHyq96-1864" value="Kategorie" style="ellipse;whiteSpace=wrap;html=1;rounded=1;shadow=0;fontSize=16;fontStyle=1;strokeWidth=3;fillColor=#fff2cc;spacing=5;arcSize=7;strokeColor=#d6b656;" parent="1" vertex="1">
          <mxGeometry x="-250" y="2510" width="180" height="80" as="geometry" />
        </mxCell>
        <mxCell id="eZMzoH8xPnQWHPTHyq96-1865" value="Season" style="ellipse;whiteSpace=wrap;html=1;rounded=1;shadow=0;fontSize=16;fontStyle=1;strokeWidth=3;fillColor=#fff2cc;spacing=5;arcSize=7;strokeColor=#d6b656;" parent="1" vertex="1">
          <mxGeometry x="-410" y="2430" width="180" height="80" as="geometry" />
        </mxCell>
        <mxCell id="eZMzoH8xPnQWHPTHyq96-1866" value="Eigenschaften" style="ellipse;whiteSpace=wrap;html=1;rounded=1;shadow=0;fontSize=16;fontStyle=1;strokeWidth=3;fillColor=#fff2cc;spacing=5;arcSize=7;strokeColor=#d6b656;" parent="1" vertex="1">
          <mxGeometry x="-200" y="2250" width="180" height="80" as="geometry" />
        </mxCell>
        <mxCell id="eZMzoH8xPnQWHPTHyq96-1868" value="Herkunft" style="ellipse;whiteSpace=wrap;html=1;rounded=1;shadow=0;fontSize=16;fontStyle=1;strokeWidth=3;fillColor=#fff2cc;spacing=5;arcSize=7;strokeColor=#d6b656;" parent="1" vertex="1">
          <mxGeometry x="-570" y="2360" width="180" height="80" as="geometry" />
        </mxCell>
        <mxCell id="eZMzoH8xPnQWHPTHyq96-1869" value="Beschaffbar über/durch" style="ellipse;whiteSpace=wrap;html=1;rounded=1;shadow=0;fontSize=16;fontStyle=1;strokeWidth=3;fillColor=#fff2cc;spacing=5;arcSize=7;strokeColor=#d6b656;" parent="1" vertex="1">
          <mxGeometry x="-820" y="2415" width="180" height="80" as="geometry" />
        </mxCell>
        <mxCell id="eZMzoH8xPnQWHPTHyq96-1870" value="Bestellbar" style="ellipse;whiteSpace=wrap;html=1;rounded=1;shadow=0;fontSize=16;fontStyle=1;strokeWidth=3;fillColor=#fff2cc;spacing=5;arcSize=7;strokeColor=#d6b656;" parent="1" vertex="1">
          <mxGeometry x="-1080" y="2460" width="180" height="80" as="geometry" />
        </mxCell>
        <mxCell id="eZMzoH8xPnQWHPTHyq96-1872" value="markierte/favorisierte&lt;br&gt;Rezepte" style="ellipse;whiteSpace=wrap;html=1;rounded=1;shadow=0;fontSize=16;fontStyle=1;strokeWidth=3;fillColor=#fff2cc;spacing=5;arcSize=7;strokeColor=#d6b656;" parent="1" vertex="1">
          <mxGeometry x="700" y="2010" width="180" height="80" as="geometry" />
        </mxCell>
        <mxCell id="eZMzoH8xPnQWHPTHyq96-1873" value="Autor" style="ellipse;whiteSpace=wrap;html=1;rounded=1;shadow=0;fontSize=16;fontStyle=1;strokeWidth=3;fillColor=#fff2cc;spacing=5;arcSize=7;strokeColor=#d6b656;" parent="1" vertex="1">
          <mxGeometry x="620" y="1710" width="180" height="80" as="geometry" />
        </mxCell>
        <mxCell id="eZMzoH8xPnQWHPTHyq96-1874" value="CoAutor" style="ellipse;whiteSpace=wrap;html=1;rounded=1;shadow=0;fontSize=16;fontStyle=1;strokeWidth=3;fillColor=#fff2cc;spacing=5;arcSize=7;strokeColor=#d6b656;" parent="1" vertex="1">
          <mxGeometry x="620" y="1850" width="180" height="80" as="geometry" />
        </mxCell>
        <mxCell id="eZMzoH8xPnQWHPTHyq96-1875" value="Erstellung" style="ellipse;whiteSpace=wrap;html=1;rounded=1;shadow=0;fontSize=16;fontStyle=1;strokeWidth=3;fillColor=#fff2cc;spacing=5;arcSize=7;strokeColor=#d6b656;" parent="1" vertex="1">
          <mxGeometry x="620" y="1570" width="180" height="80" as="geometry" />
        </mxCell>
        <mxCell id="eZMzoH8xPnQWHPTHyq96-1876" value="Zeitpunkt" style="ellipse;whiteSpace=wrap;html=1;rounded=1;shadow=0;fontSize=16;fontStyle=1;strokeWidth=3;fillColor=#fff2cc;spacing=5;arcSize=7;strokeColor=#d6b656;" parent="1" vertex="1">
          <mxGeometry x="850" y="1710" width="180" height="80" as="geometry" />
        </mxCell>
        <mxCell id="eZMzoH8xPnQWHPTHyq96-1877" value="Lesezeichen" style="ellipse;whiteSpace=wrap;html=1;rounded=1;shadow=0;fontSize=16;fontStyle=1;strokeWidth=3;fillColor=#fff2cc;spacing=5;arcSize=7;strokeColor=#d6b656;" parent="1" vertex="1">
          <mxGeometry x="1720" y="1650" width="180" height="80" as="geometry" />
        </mxCell>
        <mxCell id="eZMzoH8xPnQWHPTHyq96-1878" value="Vorratskammer" style="ellipse;whiteSpace=wrap;html=1;rounded=1;shadow=0;fontSize=16;fontStyle=1;strokeWidth=3;fillColor=#fff2cc;spacing=5;arcSize=7;strokeColor=#d6b656;" parent="1" vertex="1">
          <mxGeometry x="1570" y="1760" width="180" height="80" as="geometry" />
        </mxCell>
        <mxCell id="eZMzoH8xPnQWHPTHyq96-1879" value="Liste aller benötigten Zutaten" style="ellipse;whiteSpace=wrap;html=1;rounded=1;shadow=0;fontSize=16;fontStyle=1;strokeWidth=3;fillColor=#fff2cc;spacing=5;arcSize=7;strokeColor=#d6b656;" parent="1" vertex="1">
          <mxGeometry x="1780" y="1890" width="180" height="80" as="geometry" />
        </mxCell>
        <mxCell id="eZMzoH8xPnQWHPTHyq96-1880" value="Register" style="ellipse;whiteSpace=wrap;html=1;rounded=1;shadow=0;fontSize=16;fontStyle=1;strokeWidth=3;fillColor=#fff2cc;spacing=5;arcSize=7;strokeColor=#d6b656;" parent="1" vertex="1">
          <mxGeometry x="1340" y="1770" width="180" height="80" as="geometry" />
        </mxCell>
        <mxCell id="eZMzoH8xPnQWHPTHyq96-1881" value="Liste aller enthaltenen Rezepte" style="ellipse;whiteSpace=wrap;html=1;rounded=1;shadow=0;fontSize=16;fontStyle=1;strokeWidth=3;fillColor=#fff2cc;spacing=5;arcSize=7;strokeColor=#d6b656;" parent="1" vertex="1">
          <mxGeometry x="1330" y="1970" width="200" height="100" as="geometry" />
        </mxCell>
        <mxCell id="eZMzoH8xPnQWHPTHyq96-1882" value="Kategorien" style="ellipse;whiteSpace=wrap;html=1;rounded=1;shadow=0;fontSize=16;fontStyle=1;strokeWidth=3;fillColor=#fff2cc;spacing=5;arcSize=7;strokeColor=#d6b656;" parent="1" vertex="1">
          <mxGeometry x="1810" y="2415" width="180" height="80" as="geometry" />
        </mxCell>
        <mxCell id="eZMzoH8xPnQWHPTHyq96-1883" value="Filter durch" style="ellipse;whiteSpace=wrap;html=1;rounded=1;shadow=0;fontSize=16;fontStyle=1;strokeWidth=3;fillColor=#fff2cc;spacing=5;arcSize=7;strokeColor=#d6b656;" parent="1" vertex="1">
          <mxGeometry x="1340" y="2200" width="180" height="80" as="geometry" />
        </mxCell>
        <mxCell id="eZMzoH8xPnQWHPTHyq96-1885" value="Protein gehalt" style="ellipse;whiteSpace=wrap;html=1;rounded=1;shadow=0;fontSize=16;fontStyle=1;strokeWidth=3;fillColor=#fff2cc;spacing=5;arcSize=7;strokeColor=#d6b656;" parent="1" vertex="1">
          <mxGeometry x="1600" y="2610" width="180" height="80" as="geometry" />
        </mxCell>
        <mxCell id="eZMzoH8xPnQWHPTHyq96-1886" value="Inhaltsstoffe" style="ellipse;whiteSpace=wrap;html=1;rounded=1;shadow=0;fontSize=16;fontStyle=1;strokeWidth=3;fillColor=#fff2cc;spacing=5;arcSize=7;strokeColor=#d6b656;" parent="1" vertex="1">
          <mxGeometry x="1870" y="2300" width="180" height="80" as="geometry" />
        </mxCell>
        <mxCell id="eZMzoH8xPnQWHPTHyq96-1887" value="Kalorien" style="ellipse;whiteSpace=wrap;html=1;rounded=1;shadow=0;fontSize=16;fontStyle=1;strokeWidth=3;fillColor=#fff2cc;spacing=5;arcSize=7;strokeColor=#d6b656;" parent="1" vertex="1">
          <mxGeometry x="1760" y="2530" width="180" height="80" as="geometry" />
        </mxCell>
        <mxCell id="eZMzoH8xPnQWHPTHyq96-1890" value="Preis" style="ellipse;whiteSpace=wrap;html=1;rounded=1;shadow=0;fontSize=16;fontStyle=1;strokeWidth=3;fillColor=#fff2cc;spacing=5;arcSize=7;strokeColor=#d6b656;" parent="1" vertex="1">
          <mxGeometry x="820" y="2320" width="180" height="80" as="geometry" />
        </mxCell>
        <mxCell id="eZMzoH8xPnQWHPTHyq96-1891" value="Schwierigkeit" style="ellipse;whiteSpace=wrap;html=1;rounded=1;shadow=0;fontSize=16;fontStyle=1;strokeWidth=3;fillColor=#fff2cc;spacing=5;arcSize=7;strokeColor=#d6b656;" parent="1" vertex="1">
          <mxGeometry x="1010" y="2545" width="180" height="80" as="geometry" />
        </mxCell>
        <mxCell id="eZMzoH8xPnQWHPTHyq96-1892" value="Essgewohnheiten" style="ellipse;whiteSpace=wrap;html=1;rounded=1;shadow=0;fontSize=16;fontStyle=1;strokeWidth=3;fillColor=#fff2cc;spacing=5;arcSize=7;strokeColor=#d6b656;" parent="1" vertex="1">
          <mxGeometry x="1170" y="2620" width="180" height="80" as="geometry" />
        </mxCell>
        <mxCell id="eZMzoH8xPnQWHPTHyq96-1893" value="Bewertung" style="ellipse;whiteSpace=wrap;html=1;rounded=1;shadow=0;fontSize=16;fontStyle=1;strokeWidth=3;fillColor=#fff2cc;spacing=5;arcSize=7;strokeColor=#d6b656;" parent="1" vertex="1">
          <mxGeometry x="1380" y="2625" width="180" height="80" as="geometry" />
        </mxCell>
        <mxCell id="eZMzoH8xPnQWHPTHyq96-1894" value="Zubereitungszeit" style="ellipse;whiteSpace=wrap;html=1;rounded=1;shadow=0;fontSize=16;fontStyle=1;strokeWidth=3;fillColor=#fff2cc;spacing=5;arcSize=7;strokeColor=#d6b656;" parent="1" vertex="1">
          <mxGeometry x="880" y="2450" width="180" height="80" as="geometry" />
        </mxCell>
        <mxCell id="eZMzoH8xPnQWHPTHyq96-1895" value="Zubereitung" style="ellipse;whiteSpace=wrap;html=1;rounded=1;shadow=0;fontSize=16;fontStyle=1;strokeWidth=3;fillColor=#fff2cc;spacing=5;arcSize=7;strokeColor=#d6b656;" parent="1" vertex="1">
          <mxGeometry x="-170" y="1630" width="180" height="80" as="geometry" />
        </mxCell>
        <mxCell id="eZMzoH8xPnQWHPTHyq96-1896" value="Dauer" style="ellipse;whiteSpace=wrap;html=1;rounded=1;shadow=0;fontSize=16;fontStyle=1;strokeWidth=3;fillColor=#fff2cc;spacing=5;arcSize=7;strokeColor=#d6b656;" parent="1" vertex="1">
          <mxGeometry x="-520" y="1720" width="180" height="80" as="geometry" />
        </mxCell>
        <mxCell id="eZMzoH8xPnQWHPTHyq96-1897" value="Haushaltsgeräte" style="ellipse;whiteSpace=wrap;html=1;rounded=1;shadow=0;fontSize=16;fontStyle=1;strokeWidth=3;fillColor=#fff2cc;spacing=5;arcSize=7;strokeColor=#d6b656;" parent="1" vertex="1">
          <mxGeometry x="-380" y="1820" width="180" height="80" as="geometry" />
        </mxCell>
        <mxCell id="eZMzoH8xPnQWHPTHyq96-1898" value="Portionen" style="ellipse;whiteSpace=wrap;html=1;rounded=1;shadow=0;fontSize=16;fontStyle=1;strokeWidth=3;fillColor=#fff2cc;spacing=5;arcSize=7;strokeColor=#d6b656;" parent="1" vertex="1">
          <mxGeometry x="-210" y="1900" width="180" height="80" as="geometry" />
        </mxCell>
        <mxCell id="eZMzoH8xPnQWHPTHyq96-1899" value="Mengenangaben" style="ellipse;whiteSpace=wrap;html=1;rounded=1;shadow=0;fontSize=16;fontStyle=1;strokeWidth=3;fillColor=#fff2cc;spacing=5;arcSize=7;strokeColor=#d6b656;" parent="1" vertex="1">
          <mxGeometry x="95" y="2160" width="180" height="80" as="geometry" />
        </mxCell>
        <mxCell id="eZMzoH8xPnQWHPTHyq96-1900" value="Umrechnen" style="ellipse;whiteSpace=wrap;html=1;rounded=1;shadow=0;fontSize=16;fontStyle=1;strokeWidth=3;fillColor=#fff2cc;spacing=5;arcSize=7;strokeColor=#d6b656;" parent="1" vertex="1">
          <mxGeometry x="160" y="2330" width="180" height="80" as="geometry" />
        </mxCell>
        <mxCell id="eZMzoH8xPnQWHPTHyq96-1901" value="Anleitung" style="ellipse;whiteSpace=wrap;html=1;rounded=1;shadow=0;fontSize=16;fontStyle=1;strokeWidth=3;fillColor=#fff2cc;spacing=5;arcSize=7;strokeColor=#d6b656;" parent="1" vertex="1">
          <mxGeometry x="-550" y="1570" width="180" height="80" as="geometry" />
        </mxCell>
        <mxCell id="eZMzoH8xPnQWHPTHyq96-1902" value="Kommentare" style="ellipse;whiteSpace=wrap;html=1;rounded=1;shadow=0;fontSize=16;fontStyle=1;strokeWidth=3;fillColor=#fff2cc;spacing=5;arcSize=7;strokeColor=#d6b656;" parent="1" vertex="1">
          <mxGeometry x="-790" y="1550" width="180" height="80" as="geometry" />
        </mxCell>
        <mxCell id="eZMzoH8xPnQWHPTHyq96-1903" value="Vorher" style="ellipse;whiteSpace=wrap;html=1;rounded=1;shadow=0;fontSize=16;fontStyle=1;strokeWidth=3;fillColor=#fff2cc;spacing=5;arcSize=7;strokeColor=#d6b656;" parent="1" vertex="1">
          <mxGeometry x="-1150" y="1420" width="180" height="80" as="geometry" />
        </mxCell>
        <mxCell id="eZMzoH8xPnQWHPTHyq96-1904" value="Währendessen" style="ellipse;whiteSpace=wrap;html=1;rounded=1;shadow=0;fontSize=16;fontStyle=1;strokeWidth=3;fillColor=#fff2cc;spacing=5;arcSize=7;strokeColor=#d6b656;" parent="1" vertex="1">
          <mxGeometry x="-1240" y="1550" width="180" height="80" as="geometry" />
        </mxCell>
        <mxCell id="eZMzoH8xPnQWHPTHyq96-1905" value="Danach" style="ellipse;whiteSpace=wrap;html=1;rounded=1;shadow=0;fontSize=16;fontStyle=1;strokeWidth=3;fillColor=#fff2cc;spacing=5;arcSize=7;strokeColor=#d6b656;" parent="1" vertex="1">
          <mxGeometry x="-1160" y="1670" width="180" height="80" as="geometry" />
        </mxCell>
        <mxCell id="eZMzoH8xPnQWHPTHyq96-1907" value="FAQ" style="ellipse;whiteSpace=wrap;html=1;rounded=1;shadow=0;fontSize=16;fontStyle=1;strokeWidth=3;fillColor=#fff2cc;spacing=5;arcSize=7;strokeColor=#d6b656;" parent="1" vertex="1">
          <mxGeometry x="-320" y="1410" width="180" height="80" as="geometry" />
        </mxCell>
        <mxCell id="eZMzoH8xPnQWHPTHyq96-1908" value="" style="curved=1;endArrow=none;html=1;strokeColor=#416BE0;exitX=0;exitY=0.5;exitDx=0;exitDy=0;entryX=0.5;entryY=1;entryDx=0;entryDy=0;endFill=0;" parent="1" source="eZMzoH8xPnQWHPTHyq96-1818" target="eZMzoH8xPnQWHPTHyq96-1823" edge="1">
          <mxGeometry width="50" height="50" relative="1" as="geometry">
            <mxPoint x="1110" y="-390" as="sourcePoint" />
            <mxPoint x="1160" y="-440" as="targetPoint" />
            <Array as="points">
              <mxPoint x="1090" y="-370" />
            </Array>
          </mxGeometry>
        </mxCell>
        <mxCell id="eZMzoH8xPnQWHPTHyq96-1910" value="" style="curved=1;endArrow=none;html=1;strokeColor=#416BE0;entryX=0.513;entryY=0.952;entryDx=0;entryDy=0;entryPerimeter=0;exitX=0;exitY=0;exitDx=0;exitDy=0;endFill=0;" parent="1" source="eZMzoH8xPnQWHPTHyq96-1818" target="eZMzoH8xPnQWHPTHyq96-1819" edge="1">
          <mxGeometry width="50" height="50" relative="1" as="geometry">
            <mxPoint x="1260" y="-440" as="sourcePoint" />
            <mxPoint x="1310" y="-490" as="targetPoint" />
            <Array as="points">
              <mxPoint x="1200" y="-470" />
            </Array>
          </mxGeometry>
        </mxCell>
        <mxCell id="eZMzoH8xPnQWHPTHyq96-1911" value="" style="curved=1;endArrow=none;html=1;strokeColor=#416BE0;entryX=0.5;entryY=1;entryDx=0;entryDy=0;exitX=0.5;exitY=0;exitDx=0;exitDy=0;endFill=0;" parent="1" source="eZMzoH8xPnQWHPTHyq96-1818" target="eZMzoH8xPnQWHPTHyq96-1824" edge="1">
          <mxGeometry width="50" height="50" relative="1" as="geometry">
            <mxPoint x="1320" y="-470" as="sourcePoint" />
            <mxPoint x="1370" y="-520" as="targetPoint" />
            <Array as="points">
              <mxPoint x="1320" y="-520" />
            </Array>
          </mxGeometry>
        </mxCell>
        <mxCell id="eZMzoH8xPnQWHPTHyq96-1912" value="" style="curved=1;endArrow=none;html=1;strokeColor=#416BE0;exitX=0.5;exitY=0;exitDx=0;exitDy=0;entryX=0.5;entryY=1;entryDx=0;entryDy=0;endFill=0;" parent="1" source="eZMzoH8xPnQWHPTHyq96-1824" target="eZMzoH8xPnQWHPTHyq96-1826" edge="1">
          <mxGeometry width="50" height="50" relative="1" as="geometry">
            <mxPoint x="1350" y="-740" as="sourcePoint" />
            <mxPoint x="1400" y="-790" as="targetPoint" />
            <Array as="points">
              <mxPoint x="1310" y="-750" />
            </Array>
          </mxGeometry>
        </mxCell>
        <mxCell id="eZMzoH8xPnQWHPTHyq96-1913" value="" style="curved=1;endArrow=none;html=1;strokeColor=#416BE0;exitX=1;exitY=0;exitDx=0;exitDy=0;entryX=0.5;entryY=1;entryDx=0;entryDy=0;endFill=0;" parent="1" source="eZMzoH8xPnQWHPTHyq96-1818" target="eZMzoH8xPnQWHPTHyq96-1821" edge="1">
          <mxGeometry width="50" height="50" relative="1" as="geometry">
            <mxPoint x="1370" y="-490" as="sourcePoint" />
            <mxPoint x="1420" y="-540" as="targetPoint" />
            <Array as="points">
              <mxPoint x="1440" y="-460" />
              <mxPoint x="1480" y="-520" />
            </Array>
          </mxGeometry>
        </mxCell>
        <mxCell id="eZMzoH8xPnQWHPTHyq96-1914" value="" style="curved=1;endArrow=none;html=1;strokeColor=#416BE0;entryX=0.5;entryY=1;entryDx=0;entryDy=0;exitX=0.5;exitY=0;exitDx=0;exitDy=0;endFill=0;" parent="1" source="eZMzoH8xPnQWHPTHyq96-1821" target="eZMzoH8xPnQWHPTHyq96-1825" edge="1">
          <mxGeometry width="50" height="50" relative="1" as="geometry">
            <mxPoint x="1470" y="-680" as="sourcePoint" />
            <mxPoint x="1520" y="-730" as="targetPoint" />
            <Array as="points">
              <mxPoint x="1500" y="-720" />
              <mxPoint x="1610" y="-740" />
            </Array>
          </mxGeometry>
        </mxCell>
        <mxCell id="eZMzoH8xPnQWHPTHyq96-1915" value="" style="curved=1;endArrow=none;html=1;strokeColor=#416BE0;entryX=0.5;entryY=1;entryDx=0;entryDy=0;exitX=1;exitY=0.5;exitDx=0;exitDy=0;endFill=0;" parent="1" source="eZMzoH8xPnQWHPTHyq96-1822" target="eZMzoH8xPnQWHPTHyq96-1827" edge="1">
          <mxGeometry width="50" height="50" relative="1" as="geometry">
            <mxPoint x="1770" y="-510" as="sourcePoint" />
            <mxPoint x="1830" y="-600" as="targetPoint" />
            <Array as="points">
              <mxPoint x="1830" y="-550" />
            </Array>
          </mxGeometry>
        </mxCell>
        <mxCell id="eZMzoH8xPnQWHPTHyq96-1916" value="" style="curved=1;endArrow=none;html=1;strokeColor=#416BE0;entryX=0;entryY=1;entryDx=0;entryDy=0;exitX=1;exitY=0.5;exitDx=0;exitDy=0;endFill=0;" parent="1" source="eZMzoH8xPnQWHPTHyq96-1818" target="eZMzoH8xPnQWHPTHyq96-1822" edge="1">
          <mxGeometry width="50" height="50" relative="1" as="geometry">
            <mxPoint x="1480" y="-340" as="sourcePoint" />
            <mxPoint x="1530" y="-390" as="targetPoint" />
            <Array as="points">
              <mxPoint x="1490" y="-420" />
              <mxPoint x="1490" y="-490" />
            </Array>
          </mxGeometry>
        </mxCell>
        <mxCell id="eZMzoH8xPnQWHPTHyq96-1917" value="" style="curved=1;endArrow=none;html=1;strokeColor=#416BE0;entryX=0;entryY=0.5;entryDx=0;entryDy=0;exitX=1;exitY=0.5;exitDx=0;exitDy=0;endFill=0;" parent="1" source="eZMzoH8xPnQWHPTHyq96-1818" target="eZMzoH8xPnQWHPTHyq96-1820" edge="1">
          <mxGeometry width="50" height="50" relative="1" as="geometry">
            <mxPoint x="1500" y="-330" as="sourcePoint" />
            <mxPoint x="1550" y="-380" as="targetPoint" />
            <Array as="points">
              <mxPoint x="1520" y="-380" />
              <mxPoint x="1510" y="-450" />
            </Array>
          </mxGeometry>
        </mxCell>
        <mxCell id="eZMzoH8xPnQWHPTHyq96-1918" value="" style="curved=1;endArrow=none;html=1;strokeColor=#416BE0;entryX=0;entryY=0.5;entryDx=0;entryDy=0;exitX=1;exitY=0;exitDx=0;exitDy=0;endFill=0;" parent="1" source="eZMzoH8xPnQWHPTHyq96-1839" target="eZMzoH8xPnQWHPTHyq96-1841" edge="1">
          <mxGeometry width="50" height="50" relative="1" as="geometry">
            <mxPoint x="1270" y="-160" as="sourcePoint" />
            <mxPoint x="1320" y="-210" as="targetPoint" />
            <Array as="points">
              <mxPoint x="1520" y="-270" />
            </Array>
          </mxGeometry>
        </mxCell>
        <mxCell id="eZMzoH8xPnQWHPTHyq96-1919" value="" style="curved=1;endArrow=none;html=1;strokeColor=#416BE0;entryX=0;entryY=0.5;entryDx=0;entryDy=0;exitX=1;exitY=0.5;exitDx=0;exitDy=0;endFill=0;" parent="1" source="eZMzoH8xPnQWHPTHyq96-1839" target="eZMzoH8xPnQWHPTHyq96-1840" edge="1">
          <mxGeometry width="50" height="50" relative="1" as="geometry">
            <mxPoint x="1310" y="-30" as="sourcePoint" />
            <mxPoint x="1360" y="-80" as="targetPoint" />
            <Array as="points">
              <mxPoint x="1570" y="-200" />
            </Array>
          </mxGeometry>
        </mxCell>
        <mxCell id="eZMzoH8xPnQWHPTHyq96-1920" value="" style="curved=1;endArrow=none;html=1;strokeColor=#416BE0;endFill=0;entryX=0.5;entryY=1;entryDx=0;entryDy=0;exitX=0.5;exitY=0;exitDx=0;exitDy=0;" parent="1" source="eZMzoH8xPnQWHPTHyq96-1841" target="eZMzoH8xPnQWHPTHyq96-1820" edge="1">
          <mxGeometry width="50" height="50" relative="1" as="geometry">
            <mxPoint x="1710" y="-334" as="sourcePoint" />
            <mxPoint x="1510" y="-370" as="targetPoint" />
            <Array as="points">
              <mxPoint x="1670" y="-360" />
              <mxPoint x="1640" y="-380" />
            </Array>
          </mxGeometry>
        </mxCell>
        <mxCell id="eZMzoH8xPnQWHPTHyq96-1921" value="" style="curved=1;endArrow=none;html=1;strokeColor=#416BE0;endFill=0;entryX=0.5;entryY=1;entryDx=0;entryDy=0;exitX=1;exitY=0;exitDx=0;exitDy=0;" parent="1" source="eZMzoH8xPnQWHPTHyq96-1816" target="eZMzoH8xPnQWHPTHyq96-1818" edge="1">
          <mxGeometry width="50" height="50" relative="1" as="geometry">
            <mxPoint x="1080" y="-290" as="sourcePoint" />
            <mxPoint x="1130" y="-340" as="targetPoint" />
            <Array as="points">
              <mxPoint x="1320" y="-290" />
            </Array>
          </mxGeometry>
        </mxCell>
        <mxCell id="eZMzoH8xPnQWHPTHyq96-1922" value="Ernährung" style="ellipse;whiteSpace=wrap;html=1;rounded=1;shadow=0;fontSize=16;fontStyle=1;strokeColor=#82b366;strokeWidth=3;spacing=5;arcSize=7;fillColor=#d5e8d4;" parent="1" vertex="1">
          <mxGeometry x="940" y="-230" width="180" height="80" as="geometry" />
        </mxCell>
        <mxCell id="eZMzoH8xPnQWHPTHyq96-1923" value="" style="curved=1;endArrow=none;html=1;strokeColor=#416BE0;endFill=0;entryX=0.5;entryY=1;entryDx=0;entryDy=0;exitX=0;exitY=0;exitDx=0;exitDy=0;" parent="1" source="eZMzoH8xPnQWHPTHyq96-1785" target="eZMzoH8xPnQWHPTHyq96-1922" edge="1">
          <mxGeometry width="50" height="50" relative="1" as="geometry">
            <mxPoint x="920" y="-10" as="sourcePoint" />
            <mxPoint x="970" y="-60" as="targetPoint" />
            <Array as="points">
              <mxPoint x="1030" y="-110" />
            </Array>
          </mxGeometry>
        </mxCell>
        <mxCell id="eZMzoH8xPnQWHPTHyq96-1924" value="" style="curved=1;endArrow=none;html=1;strokeColor=#416BE0;endFill=0;entryX=0.5;entryY=1;entryDx=0;entryDy=0;exitX=0;exitY=0;exitDx=0;exitDy=0;" parent="1" source="eZMzoH8xPnQWHPTHyq96-1922" target="eZMzoH8xPnQWHPTHyq96-1790" edge="1">
          <mxGeometry width="50" height="50" relative="1" as="geometry">
            <mxPoint x="1096.3603896932173" y="-98.28427124745895" as="sourcePoint" />
            <mxPoint x="1040" y="-140" as="targetPoint" />
            <Array as="points">
              <mxPoint x="890" y="-218" />
            </Array>
          </mxGeometry>
        </mxCell>
        <mxCell id="eZMzoH8xPnQWHPTHyq96-1925" value="" style="curved=1;endArrow=none;html=1;strokeColor=#416BE0;endFill=0;entryX=0.5;entryY=1;entryDx=0;entryDy=0;exitX=0.5;exitY=0;exitDx=0;exitDy=0;" parent="1" source="eZMzoH8xPnQWHPTHyq96-1922" target="eZMzoH8xPnQWHPTHyq96-1789" edge="1">
          <mxGeometry width="50" height="50" relative="1" as="geometry">
            <mxPoint x="790" y="-140" as="sourcePoint" />
            <mxPoint x="1043" y="-310" as="targetPoint" />
            <Array as="points">
              <mxPoint x="1060" y="-260" />
            </Array>
          </mxGeometry>
        </mxCell>
        <mxCell id="eZMzoH8xPnQWHPTHyq96-1926" value="" style="curved=1;endArrow=none;html=1;strokeColor=#416BE0;endFill=0;entryX=0;entryY=1;entryDx=0;entryDy=0;exitX=1;exitY=0.5;exitDx=0;exitDy=0;" parent="1" source="eZMzoH8xPnQWHPTHyq96-1785" target="eZMzoH8xPnQWHPTHyq96-1839" edge="1">
          <mxGeometry width="50" height="50" relative="1" as="geometry">
            <mxPoint x="1260" y="-30" as="sourcePoint" />
            <mxPoint x="1310" y="-80" as="targetPoint" />
            <Array as="points">
              <mxPoint x="1340" y="-90" />
            </Array>
          </mxGeometry>
        </mxCell>
        <mxCell id="eZMzoH8xPnQWHPTHyq96-1927" value="" style="curved=1;endArrow=none;html=1;strokeColor=#416BE0;endFill=0;entryX=0.5;entryY=1;entryDx=0;entryDy=0;exitX=1;exitY=0;exitDx=0;exitDy=0;" parent="1" source="eZMzoH8xPnQWHPTHyq96-1785" target="eZMzoH8xPnQWHPTHyq96-1816" edge="1">
          <mxGeometry width="50" height="50" relative="1" as="geometry">
            <mxPoint x="1160" y="-110" as="sourcePoint" />
            <mxPoint x="1210" y="-160" as="targetPoint" />
            <Array as="points">
              <mxPoint x="1270" y="-130" />
            </Array>
          </mxGeometry>
        </mxCell>
        <mxCell id="eZMzoH8xPnQWHPTHyq96-1928" value="" style="curved=1;endArrow=none;html=1;strokeColor=#416BE0;endFill=0;exitX=1;exitY=0.5;exitDx=0;exitDy=0;entryX=0;entryY=1;entryDx=0;entryDy=0;" parent="1" source="eZMzoH8xPnQWHPTHyq96-1803" target="eZMzoH8xPnQWHPTHyq96-1801" edge="1">
          <mxGeometry width="50" height="50" relative="1" as="geometry">
            <mxPoint x="120" y="-331" as="sourcePoint" />
            <mxPoint x="170" y="-381" as="targetPoint" />
            <Array as="points">
              <mxPoint x="120" y="-380.9999999999998" />
            </Array>
          </mxGeometry>
        </mxCell>
        <mxCell id="eZMzoH8xPnQWHPTHyq96-1929" value="" style="curved=1;endArrow=none;html=1;strokeColor=#416BE0;endFill=0;entryX=1;entryY=1;entryDx=0;entryDy=0;exitX=0;exitY=0.5;exitDx=0;exitDy=0;" parent="1" source="eZMzoH8xPnQWHPTHyq96-1801" target="eZMzoH8xPnQWHPTHyq96-1802" edge="1">
          <mxGeometry width="50" height="50" relative="1" as="geometry">
            <mxPoint x="200" y="-381" as="sourcePoint" />
            <mxPoint x="250" y="-431" as="targetPoint" />
            <Array as="points">
              <mxPoint x="200" y="-430.9999999999998" />
            </Array>
          </mxGeometry>
        </mxCell>
        <mxCell id="eZMzoH8xPnQWHPTHyq96-1930" value="" style="curved=1;endArrow=none;html=1;strokeColor=#416BE0;endFill=0;entryX=0.5;entryY=1;entryDx=0;entryDy=0;exitX=0;exitY=0;exitDx=0;exitDy=0;" parent="1" source="eZMzoH8xPnQWHPTHyq96-1801" target="eZMzoH8xPnQWHPTHyq96-1809" edge="1">
          <mxGeometry width="50" height="50" relative="1" as="geometry">
            <mxPoint x="230" y="-431" as="sourcePoint" />
            <mxPoint x="280" y="-481" as="targetPoint" />
            <Array as="points">
              <mxPoint x="230" y="-480.9999999999998" />
            </Array>
          </mxGeometry>
        </mxCell>
        <mxCell id="eZMzoH8xPnQWHPTHyq96-1932" value="" style="curved=1;endArrow=none;html=1;strokeColor=#416BE0;endFill=0;entryX=0.5;entryY=1;entryDx=0;entryDy=0;exitX=0.5;exitY=0;exitDx=0;exitDy=0;" parent="1" source="eZMzoH8xPnQWHPTHyq96-1801" target="eZMzoH8xPnQWHPTHyq96-1812" edge="1">
          <mxGeometry width="50" height="50" relative="1" as="geometry">
            <mxPoint x="370" y="-461" as="sourcePoint" />
            <mxPoint x="420" y="-511" as="targetPoint" />
            <Array as="points">
              <mxPoint x="370" y="-510.9999999999998" />
            </Array>
          </mxGeometry>
        </mxCell>
        <mxCell id="eZMzoH8xPnQWHPTHyq96-1933" value="" style="curved=1;endArrow=none;html=1;strokeColor=#416BE0;endFill=0;entryX=0.106;entryY=0.864;entryDx=0;entryDy=0;entryPerimeter=0;exitX=1;exitY=0;exitDx=0;exitDy=0;" parent="1" source="eZMzoH8xPnQWHPTHyq96-1801" target="eZMzoH8xPnQWHPTHyq96-1811" edge="1">
          <mxGeometry width="50" height="50" relative="1" as="geometry">
            <mxPoint x="410" y="-451" as="sourcePoint" />
            <mxPoint x="460" y="-501" as="targetPoint" />
            <Array as="points">
              <mxPoint x="520" y="-461" />
            </Array>
          </mxGeometry>
        </mxCell>
        <mxCell id="eZMzoH8xPnQWHPTHyq96-1934" value="" style="curved=1;endArrow=none;html=1;strokeColor=#416BE0;endFill=0;entryX=1;entryY=0.5;entryDx=0;entryDy=0;exitX=0;exitY=0;exitDx=0;exitDy=0;" parent="1" source="eZMzoH8xPnQWHPTHyq96-1800" target="eZMzoH8xPnQWHPTHyq96-1804" edge="1">
          <mxGeometry width="50" height="50" relative="1" as="geometry">
            <mxPoint y="-151" as="sourcePoint" />
            <mxPoint x="50" y="-201" as="targetPoint" />
            <Array as="points">
              <mxPoint y="-200.99999999999977" />
            </Array>
          </mxGeometry>
        </mxCell>
        <mxCell id="eZMzoH8xPnQWHPTHyq96-1935" value="" style="curved=1;endArrow=none;html=1;strokeColor=#416BE0;endFill=0;entryX=0;entryY=0.5;entryDx=0;entryDy=0;exitX=1;exitY=0.5;exitDx=0;exitDy=0;" parent="1" source="eZMzoH8xPnQWHPTHyq96-1805" target="eZMzoH8xPnQWHPTHyq96-1800" edge="1">
          <mxGeometry width="50" height="50" relative="1" as="geometry">
            <mxPoint y="-81" as="sourcePoint" />
            <mxPoint x="50" y="-131" as="targetPoint" />
            <Array as="points">
              <mxPoint y="-130.99999999999977" />
            </Array>
          </mxGeometry>
        </mxCell>
        <mxCell id="eZMzoH8xPnQWHPTHyq96-1936" value="" style="curved=1;endArrow=none;html=1;strokeColor=#416BE0;endFill=0;entryX=0;entryY=1;entryDx=0;entryDy=0;exitX=1;exitY=0;exitDx=0;exitDy=0;" parent="1" source="eZMzoH8xPnQWHPTHyq96-1815" target="eZMzoH8xPnQWHPTHyq96-1800" edge="1">
          <mxGeometry width="50" height="50" relative="1" as="geometry">
            <mxPoint x="10" y="-41" as="sourcePoint" />
            <mxPoint x="60" y="-91" as="targetPoint" />
            <Array as="points">
              <mxPoint x="10" y="-90.99999999999977" />
            </Array>
          </mxGeometry>
        </mxCell>
        <mxCell id="eZMzoH8xPnQWHPTHyq96-1937" value="" style="curved=1;endArrow=none;html=1;strokeColor=#416BE0;endFill=0;entryX=0.5;entryY=1;entryDx=0;entryDy=0;exitX=0.5;exitY=0;exitDx=0;exitDy=0;" parent="1" source="eZMzoH8xPnQWHPTHyq96-1814" target="eZMzoH8xPnQWHPTHyq96-1800" edge="1">
          <mxGeometry width="50" height="50" relative="1" as="geometry">
            <mxPoint x="110" y="-1" as="sourcePoint" />
            <mxPoint x="160" y="-51" as="targetPoint" />
            <Array as="points">
              <mxPoint x="80" y="-71" />
            </Array>
          </mxGeometry>
        </mxCell>
        <mxCell id="eZMzoH8xPnQWHPTHyq96-1938" value="" style="curved=1;endArrow=none;html=1;strokeColor=#416BE0;endFill=0;entryX=1;entryY=1;entryDx=0;entryDy=0;exitX=0.5;exitY=0;exitDx=0;exitDy=0;" parent="1" source="eZMzoH8xPnQWHPTHyq96-1813" target="eZMzoH8xPnQWHPTHyq96-1800" edge="1">
          <mxGeometry width="50" height="50" relative="1" as="geometry">
            <mxPoint x="200" y="19" as="sourcePoint" />
            <mxPoint x="250" y="-31" as="targetPoint" />
            <Array as="points">
              <mxPoint x="270" y="-21" />
            </Array>
          </mxGeometry>
        </mxCell>
        <mxCell id="eZMzoH8xPnQWHPTHyq96-1939" value="" style="curved=1;endArrow=none;html=1;strokeColor=#416BE0;endFill=0;entryX=0;entryY=0.5;entryDx=0;entryDy=0;exitX=1;exitY=0;exitDx=0;exitDy=0;" parent="1" source="eZMzoH8xPnQWHPTHyq96-1798" target="eZMzoH8xPnQWHPTHyq96-1804" edge="1">
          <mxGeometry width="50" height="50" relative="1" as="geometry">
            <mxPoint x="-280" y="-261" as="sourcePoint" />
            <mxPoint x="-230" y="-311" as="targetPoint" />
            <Array as="points">
              <mxPoint x="-260" y="-281" />
            </Array>
          </mxGeometry>
        </mxCell>
        <mxCell id="eZMzoH8xPnQWHPTHyq96-1940" value="" style="curved=1;endArrow=none;html=1;strokeColor=#416BE0;endFill=0;entryX=0.5;entryY=1;entryDx=0;entryDy=0;exitX=0;exitY=0;exitDx=0;exitDy=0;" parent="1" source="eZMzoH8xPnQWHPTHyq96-1799" target="eZMzoH8xPnQWHPTHyq96-1801" edge="1">
          <mxGeometry width="50" height="50" relative="1" as="geometry">
            <mxPoint x="310" y="-201" as="sourcePoint" />
            <mxPoint x="360" y="-251" as="targetPoint" />
            <Array as="points">
              <mxPoint x="340" y="-301" />
            </Array>
          </mxGeometry>
        </mxCell>
        <mxCell id="eZMzoH8xPnQWHPTHyq96-1941" value="" style="curved=1;endArrow=none;html=1;strokeColor=#416BE0;endFill=0;entryX=0;entryY=1;entryDx=0;entryDy=0;exitX=1;exitY=0.5;exitDx=0;exitDy=0;" parent="1" source="eZMzoH8xPnQWHPTHyq96-1800" target="eZMzoH8xPnQWHPTHyq96-1799" edge="1">
          <mxGeometry width="50" height="50" relative="1" as="geometry">
            <mxPoint x="270" y="-201" as="sourcePoint" />
            <mxPoint x="320" y="-251" as="targetPoint" />
            <Array as="points">
              <mxPoint x="330" y="-131" />
            </Array>
          </mxGeometry>
        </mxCell>
        <mxCell id="eZMzoH8xPnQWHPTHyq96-1942" value="" style="curved=1;endArrow=none;html=1;strokeColor=#416BE0;endFill=0;entryX=0;entryY=0.5;entryDx=0;entryDy=0;exitX=1;exitY=0.5;exitDx=0;exitDy=0;" parent="1" source="eZMzoH8xPnQWHPTHyq96-1784" target="eZMzoH8xPnQWHPTHyq96-1788" edge="1">
          <mxGeometry width="50" height="50" relative="1" as="geometry">
            <mxPoint x="-310" y="530.5" as="sourcePoint" />
            <mxPoint x="-260" y="480.5" as="targetPoint" />
            <Array as="points">
              <mxPoint x="-310" y="450.5" />
            </Array>
          </mxGeometry>
        </mxCell>
        <mxCell id="eZMzoH8xPnQWHPTHyq96-1943" value="" style="curved=1;endArrow=none;html=1;strokeColor=#416BE0;endFill=0;entryX=0;entryY=1;entryDx=0;entryDy=0;exitX=1;exitY=0;exitDx=0;exitDy=0;" parent="1" source="eZMzoH8xPnQWHPTHyq96-1792" target="eZMzoH8xPnQWHPTHyq96-1788" edge="1">
          <mxGeometry width="50" height="50" relative="1" as="geometry">
            <mxPoint x="-230" y="570.5" as="sourcePoint" />
            <mxPoint x="-180" y="520.5" as="targetPoint" />
            <Array as="points">
              <mxPoint x="-230" y="520.5000000000002" />
            </Array>
          </mxGeometry>
        </mxCell>
        <mxCell id="eZMzoH8xPnQWHPTHyq96-1944" value="" style="curved=1;endArrow=none;html=1;strokeColor=#416BE0;endFill=0;entryX=0.5;entryY=1;entryDx=0;entryDy=0;exitX=0;exitY=0;exitDx=0;exitDy=0;" parent="1" source="eZMzoH8xPnQWHPTHyq96-1782" target="eZMzoH8xPnQWHPTHyq96-1788" edge="1">
          <mxGeometry width="50" height="50" relative="1" as="geometry">
            <mxPoint x="-220" y="600.5" as="sourcePoint" />
            <mxPoint x="-170" y="550.5" as="targetPoint" />
            <Array as="points">
              <mxPoint x="-220" y="550.5000000000002" />
            </Array>
          </mxGeometry>
        </mxCell>
        <mxCell id="eZMzoH8xPnQWHPTHyq96-1945" value="" style="curved=1;endArrow=none;html=1;strokeColor=#416BE0;endFill=0;entryX=0;entryY=1;entryDx=0;entryDy=0;exitX=0.5;exitY=0;exitDx=0;exitDy=0;" parent="1" source="eZMzoH8xPnQWHPTHyq96-1808" target="eZMzoH8xPnQWHPTHyq96-1782" edge="1">
          <mxGeometry width="50" height="50" relative="1" as="geometry">
            <mxPoint x="-270" y="760.5" as="sourcePoint" />
            <mxPoint x="-220" y="710.5" as="targetPoint" />
            <Array as="points">
              <mxPoint x="-230" y="710.5" />
            </Array>
          </mxGeometry>
        </mxCell>
        <mxCell id="eZMzoH8xPnQWHPTHyq96-1946" value="" style="curved=1;endArrow=none;html=1;strokeColor=#416BE0;endFill=0;entryX=1;entryY=1;entryDx=0;entryDy=0;exitX=0.5;exitY=0;exitDx=0;exitDy=0;" parent="1" source="eZMzoH8xPnQWHPTHyq96-1829" target="eZMzoH8xPnQWHPTHyq96-1782" edge="1">
          <mxGeometry width="50" height="50" relative="1" as="geometry">
            <mxPoint x="-10" y="760.5" as="sourcePoint" />
            <mxPoint x="40" y="710.5" as="targetPoint" />
            <Array as="points">
              <mxPoint x="60" y="720.5" />
            </Array>
          </mxGeometry>
        </mxCell>
        <mxCell id="eZMzoH8xPnQWHPTHyq96-1947" value="" style="curved=1;endArrow=none;html=1;strokeColor=#416BE0;endFill=0;entryX=0;entryY=1;entryDx=0;entryDy=0;exitX=1;exitY=0.5;exitDx=0;exitDy=0;" parent="1" source="eZMzoH8xPnQWHPTHyq96-1793" target="eZMzoH8xPnQWHPTHyq96-1792" edge="1">
          <mxGeometry width="50" height="50" relative="1" as="geometry">
            <mxPoint x="-460" y="760.5" as="sourcePoint" />
            <mxPoint x="-410" y="710.5" as="targetPoint" />
            <Array as="points">
              <mxPoint x="-444" y="690.5" />
            </Array>
          </mxGeometry>
        </mxCell>
        <mxCell id="eZMzoH8xPnQWHPTHyq96-1948" value="" style="curved=1;endArrow=none;html=1;strokeColor=#416BE0;endFill=0;entryX=0;entryY=0.5;entryDx=0;entryDy=0;exitX=1;exitY=1;exitDx=0;exitDy=0;" parent="1" source="eZMzoH8xPnQWHPTHyq96-1797" target="eZMzoH8xPnQWHPTHyq96-1793" edge="1">
          <mxGeometry width="50" height="50" relative="1" as="geometry">
            <mxPoint x="-770" y="760.5" as="sourcePoint" />
            <mxPoint x="-720" y="710.5" as="targetPoint" />
            <Array as="points">
              <mxPoint x="-770" y="710.5000000000002" />
            </Array>
          </mxGeometry>
        </mxCell>
        <mxCell id="eZMzoH8xPnQWHPTHyq96-1949" value="" style="curved=1;endArrow=none;html=1;strokeColor=#416BE0;endFill=0;entryX=0;entryY=1;entryDx=0;entryDy=0;exitX=1;exitY=0.5;exitDx=0;exitDy=0;" parent="1" source="eZMzoH8xPnQWHPTHyq96-1796" target="eZMzoH8xPnQWHPTHyq96-1793" edge="1">
          <mxGeometry width="50" height="50" relative="1" as="geometry">
            <mxPoint x="-750" y="810.5" as="sourcePoint" />
            <mxPoint x="-700" y="760.5" as="targetPoint" />
            <Array as="points">
              <mxPoint x="-750" y="760.5000000000002" />
            </Array>
          </mxGeometry>
        </mxCell>
        <mxCell id="eZMzoH8xPnQWHPTHyq96-1950" value="" style="curved=1;endArrow=none;html=1;strokeColor=#416BE0;endFill=0;entryX=0;entryY=1;entryDx=0;entryDy=0;exitX=1;exitY=0;exitDx=0;exitDy=0;" parent="1" source="eZMzoH8xPnQWHPTHyq96-1794" target="eZMzoH8xPnQWHPTHyq96-1793" edge="1">
          <mxGeometry width="50" height="50" relative="1" as="geometry">
            <mxPoint x="-720" y="830.5" as="sourcePoint" />
            <mxPoint x="-670" y="780.5" as="targetPoint" />
            <Array as="points">
              <mxPoint x="-720" y="780.5000000000002" />
            </Array>
          </mxGeometry>
        </mxCell>
        <mxCell id="eZMzoH8xPnQWHPTHyq96-1951" value="" style="curved=1;endArrow=none;html=1;strokeColor=#416BE0;endFill=0;entryX=0.5;entryY=1;entryDx=0;entryDy=0;exitX=0.5;exitY=0;exitDx=0;exitDy=0;" parent="1" source="eZMzoH8xPnQWHPTHyq96-1795" target="eZMzoH8xPnQWHPTHyq96-1793" edge="1">
          <mxGeometry width="50" height="50" relative="1" as="geometry">
            <mxPoint x="-570" y="830.5" as="sourcePoint" />
            <mxPoint x="-520" y="780.5" as="targetPoint" />
            <Array as="points">
              <mxPoint x="-570" y="780.5000000000002" />
            </Array>
          </mxGeometry>
        </mxCell>
        <mxCell id="eZMzoH8xPnQWHPTHyq96-1952" value="" style="curved=1;endArrow=none;html=1;strokeColor=#416BE0;endFill=0;entryX=0;entryY=0.5;entryDx=0;entryDy=0;exitX=1;exitY=1;exitDx=0;exitDy=0;" parent="1" source="eZMzoH8xPnQWHPTHyq96-1828" target="eZMzoH8xPnQWHPTHyq96-1784" edge="1">
          <mxGeometry width="50" height="50" relative="1" as="geometry">
            <mxPoint x="-700" y="540.5" as="sourcePoint" />
            <mxPoint x="-650" y="490.5" as="targetPoint" />
            <Array as="points">
              <mxPoint x="-700" y="490.5000000000002" />
            </Array>
          </mxGeometry>
        </mxCell>
        <mxCell id="eZMzoH8xPnQWHPTHyq96-1953" value="Fast in Vergessenheit geratene Gerichte" style="ellipse;whiteSpace=wrap;html=1;rounded=1;shadow=0;fontSize=16;fontStyle=1;strokeColor=#d79b00;strokeWidth=3;spacing=5;arcSize=7;fillColor=#FFFFFF;" parent="1" vertex="1">
          <mxGeometry x="2460" y="459.5" width="200" height="100" as="geometry" />
        </mxCell>
        <mxCell id="eZMzoH8xPnQWHPTHyq96-1954" value="Kulturelle Gerichte" style="ellipse;whiteSpace=wrap;html=1;rounded=1;shadow=0;fontSize=16;fontStyle=1;strokeColor=#d79b00;strokeWidth=3;fillColor=#ffe6cc;spacing=5;arcSize=7;" parent="1" vertex="1">
          <mxGeometry x="2240" y="570" width="180" height="80" as="geometry" />
        </mxCell>
        <mxCell id="eZMzoH8xPnQWHPTHyq96-1955" value="Kultur" style="ellipse;whiteSpace=wrap;html=1;rounded=1;shadow=0;fontSize=16;fontColor=#ffffff;fontStyle=1;strokeColor=#BD7000;strokeWidth=3;fillColor=#f0a30a;spacing=5;arcSize=7;" parent="1" vertex="1">
          <mxGeometry x="1910" y="610" width="180" height="80" as="geometry" />
        </mxCell>
        <mxCell id="eZMzoH8xPnQWHPTHyq96-1956" value="Tradition" style="ellipse;whiteSpace=wrap;html=1;rounded=1;shadow=0;fontSize=16;fontColor=#ffffff;fontStyle=1;strokeColor=#BD7000;strokeWidth=3;fillColor=#f0a30a;spacing=5;arcSize=7;" parent="1" vertex="1">
          <mxGeometry x="1830" y="380" width="180" height="80" as="geometry" />
        </mxCell>
        <mxCell id="eZMzoH8xPnQWHPTHyq96-1958" value="" style="curved=1;endArrow=none;html=1;strokeColor=#416BE0;endFill=0;entryX=0.5;entryY=1;entryDx=0;entryDy=0;exitX=0.5;exitY=0;exitDx=0;exitDy=0;" parent="1" source="eZMzoH8xPnQWHPTHyq96-1956" target="eZMzoH8xPnQWHPTHyq96-1844" edge="1">
          <mxGeometry width="50" height="50" relative="1" as="geometry">
            <mxPoint x="1790" y="380" as="sourcePoint" />
            <mxPoint x="1840" y="330" as="targetPoint" />
            <Array as="points">
              <mxPoint x="1980" y="340" />
            </Array>
          </mxGeometry>
        </mxCell>
        <mxCell id="eZMzoH8xPnQWHPTHyq96-1959" value="" style="curved=1;endArrow=none;html=1;strokeColor=#416BE0;endFill=0;entryX=0;entryY=1;entryDx=0;entryDy=0;exitX=0.5;exitY=0;exitDx=0;exitDy=0;" parent="1" source="eZMzoH8xPnQWHPTHyq96-1844" target="eZMzoH8xPnQWHPTHyq96-1846" edge="1">
          <mxGeometry width="50" height="50" relative="1" as="geometry">
            <mxPoint x="1890" y="190" as="sourcePoint" />
            <mxPoint x="1940" y="140" as="targetPoint" />
            <Array as="points">
              <mxPoint x="2000" y="160" />
            </Array>
          </mxGeometry>
        </mxCell>
        <mxCell id="eZMzoH8xPnQWHPTHyq96-1960" value="" style="curved=1;endArrow=none;html=1;strokeColor=#416BE0;endFill=0;entryX=0;entryY=1;entryDx=0;entryDy=0;exitX=1;exitY=0;exitDx=0;exitDy=0;" parent="1" source="eZMzoH8xPnQWHPTHyq96-1846" target="eZMzoH8xPnQWHPTHyq96-1847" edge="1">
          <mxGeometry width="50" height="50" relative="1" as="geometry">
            <mxPoint x="2050" y="50" as="sourcePoint" />
            <mxPoint x="2100" as="targetPoint" />
            <Array as="points">
              <mxPoint x="2190" y="40" />
            </Array>
          </mxGeometry>
        </mxCell>
        <mxCell id="eZMzoH8xPnQWHPTHyq96-1961" value="" style="curved=1;endArrow=none;html=1;strokeColor=#416BE0;endFill=0;exitX=0;exitY=0;exitDx=0;exitDy=0;entryX=0.5;entryY=1;entryDx=0;entryDy=0;" parent="1" source="eZMzoH8xPnQWHPTHyq96-1847" target="eZMzoH8xPnQWHPTHyq96-1848" edge="1">
          <mxGeometry width="50" height="50" relative="1" as="geometry">
            <mxPoint x="2060" y="-60" as="sourcePoint" />
            <mxPoint x="2110" y="-110" as="targetPoint" />
            <Array as="points">
              <mxPoint x="2140" y="-80" />
            </Array>
          </mxGeometry>
        </mxCell>
        <mxCell id="eZMzoH8xPnQWHPTHyq96-1962" value="" style="curved=1;endArrow=none;html=1;strokeColor=#416BE0;endFill=0;entryX=0.5;entryY=1;entryDx=0;entryDy=0;exitX=0.5;exitY=0;exitDx=0;exitDy=0;" parent="1" source="eZMzoH8xPnQWHPTHyq96-1847" target="eZMzoH8xPnQWHPTHyq96-1851" edge="1">
          <mxGeometry width="50" height="50" relative="1" as="geometry">
            <mxPoint x="2320" y="-120" as="sourcePoint" />
            <mxPoint x="2370" y="-170" as="targetPoint" />
            <Array as="points">
              <mxPoint x="2320" y="-169.99999999999977" />
            </Array>
          </mxGeometry>
        </mxCell>
        <mxCell id="eZMzoH8xPnQWHPTHyq96-1963" value="" style="curved=1;endArrow=none;html=1;strokeColor=#416BE0;endFill=0;entryX=0;entryY=1;entryDx=0;entryDy=0;exitX=1;exitY=0;exitDx=0;exitDy=0;" parent="1" source="eZMzoH8xPnQWHPTHyq96-1847" target="eZMzoH8xPnQWHPTHyq96-1849" edge="1">
          <mxGeometry width="50" height="50" relative="1" as="geometry">
            <mxPoint x="2480" y="-60" as="sourcePoint" />
            <mxPoint x="2530" y="-110" as="targetPoint" />
            <Array as="points">
              <mxPoint x="2510" y="-110" />
            </Array>
          </mxGeometry>
        </mxCell>
        <mxCell id="eZMzoH8xPnQWHPTHyq96-1964" value="" style="curved=1;endArrow=none;html=1;strokeColor=#416BE0;endFill=0;exitX=1;exitY=0.5;exitDx=0;exitDy=0;entryX=0;entryY=0.5;entryDx=0;entryDy=0;" parent="1" source="eZMzoH8xPnQWHPTHyq96-1847" target="eZMzoH8xPnQWHPTHyq96-1852" edge="1">
          <mxGeometry width="50" height="50" relative="1" as="geometry">
            <mxPoint x="2440" y="30" as="sourcePoint" />
            <mxPoint x="2490" y="-20" as="targetPoint" />
            <Array as="points">
              <mxPoint x="2590" y="-70" />
            </Array>
          </mxGeometry>
        </mxCell>
        <mxCell id="eZMzoH8xPnQWHPTHyq96-1965" value="" style="curved=1;endArrow=none;html=1;strokeColor=#416BE0;endFill=0;exitX=1;exitY=1;exitDx=0;exitDy=0;entryX=0;entryY=0.5;entryDx=0;entryDy=0;" parent="1" source="eZMzoH8xPnQWHPTHyq96-1847" target="eZMzoH8xPnQWHPTHyq96-1850" edge="1">
          <mxGeometry width="50" height="50" relative="1" as="geometry">
            <mxPoint x="2530" y="90" as="sourcePoint" />
            <mxPoint x="2580" y="40" as="targetPoint" />
            <Array as="points">
              <mxPoint x="2490" y="70" />
            </Array>
          </mxGeometry>
        </mxCell>
        <mxCell id="eZMzoH8xPnQWHPTHyq96-1966" value="" style="curved=1;endArrow=none;html=1;strokeColor=#416BE0;endFill=0;entryX=0;entryY=0.5;entryDx=0;entryDy=0;exitX=1;exitY=0.5;exitDx=0;exitDy=0;" parent="1" source="eZMzoH8xPnQWHPTHyq96-1956" target="eZMzoH8xPnQWHPTHyq96-1806" edge="1">
          <mxGeometry width="50" height="50" relative="1" as="geometry">
            <mxPoint x="2040" y="510" as="sourcePoint" />
            <mxPoint x="2090" y="460" as="targetPoint" />
            <Array as="points">
              <mxPoint x="2050" y="370" />
            </Array>
          </mxGeometry>
        </mxCell>
        <mxCell id="eZMzoH8xPnQWHPTHyq96-1967" value="" style="curved=1;endArrow=none;html=1;strokeColor=#416BE0;endFill=0;exitX=1;exitY=0.5;exitDx=0;exitDy=0;entryX=0;entryY=0.5;entryDx=0;entryDy=0;" parent="1" source="eZMzoH8xPnQWHPTHyq96-1955" target="eZMzoH8xPnQWHPTHyq96-1954" edge="1">
          <mxGeometry width="50" height="50" relative="1" as="geometry">
            <mxPoint x="2170" y="670" as="sourcePoint" />
            <mxPoint x="2220" y="620" as="targetPoint" />
            <Array as="points">
              <mxPoint x="2170" y="680" />
            </Array>
          </mxGeometry>
        </mxCell>
        <mxCell id="eZMzoH8xPnQWHPTHyq96-1968" value="" style="curved=1;endArrow=none;html=1;strokeColor=#416BE0;endFill=0;entryX=0;entryY=0.5;entryDx=0;entryDy=0;exitX=1;exitY=0;exitDx=0;exitDy=0;" parent="1" source="eZMzoH8xPnQWHPTHyq96-1954" target="eZMzoH8xPnQWHPTHyq96-1953" edge="1">
          <mxGeometry width="50" height="50" relative="1" as="geometry">
            <mxPoint x="2220" y="540" as="sourcePoint" />
            <mxPoint x="2270" y="490" as="targetPoint" />
            <Array as="points">
              <mxPoint x="2400" y="540" />
            </Array>
          </mxGeometry>
        </mxCell>
        <mxCell id="eZMzoH8xPnQWHPTHyq96-1969" value="" style="curved=1;endArrow=none;html=1;strokeColor=#416BE0;endFill=0;exitX=1;exitY=0;exitDx=0;exitDy=0;entryX=0;entryY=1;entryDx=0;entryDy=0;" parent="1" source="eZMzoH8xPnQWHPTHyq96-1954" target="eZMzoH8xPnQWHPTHyq96-1791" edge="1">
          <mxGeometry width="50" height="50" relative="1" as="geometry">
            <mxPoint x="2360" y="570" as="sourcePoint" />
            <mxPoint x="2410" y="520" as="targetPoint" />
            <Array as="points">
              <mxPoint x="2360" y="520.0000000000002" />
            </Array>
          </mxGeometry>
        </mxCell>
        <mxCell id="eZMzoH8xPnQWHPTHyq96-1970" value="" style="curved=1;endArrow=none;html=1;strokeColor=#416BE0;endFill=0;entryX=0.5;entryY=1;entryDx=0;entryDy=0;exitX=0;exitY=0.5;exitDx=0;exitDy=0;" parent="1" source="eZMzoH8xPnQWHPTHyq96-1953" target="eZMzoH8xPnQWHPTHyq96-1806" edge="1">
          <mxGeometry width="50" height="50" relative="1" as="geometry">
            <mxPoint x="2190" y="560" as="sourcePoint" />
            <mxPoint x="2240" y="510" as="targetPoint" />
            <Array as="points">
              <mxPoint x="2190" y="510.0000000000002" />
            </Array>
          </mxGeometry>
        </mxCell>
        <mxCell id="eZMzoH8xPnQWHPTHyq96-1971" value="" style="curved=1;endArrow=none;html=1;strokeColor=#416BE0;endFill=0;exitX=1;exitY=1;exitDx=0;exitDy=0;entryX=0;entryY=1;entryDx=0;entryDy=0;" parent="1" source="eZMzoH8xPnQWHPTHyq96-1806" target="eZMzoH8xPnQWHPTHyq96-1791" edge="1">
          <mxGeometry width="50" height="50" relative="1" as="geometry">
            <mxPoint x="2320" y="460" as="sourcePoint" />
            <mxPoint x="2370" y="410" as="targetPoint" />
            <Array as="points">
              <mxPoint x="2320" y="410.0000000000002" />
            </Array>
          </mxGeometry>
        </mxCell>
        <mxCell id="eZMzoH8xPnQWHPTHyq96-1972" value="Ort" style="ellipse;whiteSpace=wrap;html=1;rounded=1;shadow=0;fontSize=16;fontStyle=1;strokeWidth=3;fillColor=#fff2cc;spacing=5;arcSize=7;strokeColor=#d6b656;" parent="1" vertex="1">
          <mxGeometry x="390" y="1710" width="180" height="80" as="geometry" />
        </mxCell>
        <mxCell id="eZMzoH8xPnQWHPTHyq96-1973" value="" style="curved=1;endArrow=none;html=1;endFill=0;exitX=0.451;exitY=-0.005;exitDx=0;exitDy=0;exitPerimeter=0;entryX=0;entryY=0.5;entryDx=0;entryDy=0;fillColor=#fff2cc;strokeColor=#d6b656;" parent="1" source="eZMzoH8xPnQWHPTHyq96-1972" target="eZMzoH8xPnQWHPTHyq96-1875" edge="1">
          <mxGeometry width="50" height="50" relative="1" as="geometry">
            <mxPoint x="420" y="1640" as="sourcePoint" />
            <mxPoint x="470" y="1590" as="targetPoint" />
            <Array as="points">
              <mxPoint x="550" y="1630" />
            </Array>
          </mxGeometry>
        </mxCell>
        <mxCell id="eZMzoH8xPnQWHPTHyq96-1974" value="" style="curved=1;endArrow=none;html=1;endFill=0;entryX=0.5;entryY=1;entryDx=0;entryDy=0;exitX=0.5;exitY=0;exitDx=0;exitDy=0;fillColor=#fff2cc;strokeColor=#d6b656;" parent="1" source="eZMzoH8xPnQWHPTHyq96-1873" target="eZMzoH8xPnQWHPTHyq96-1875" edge="1">
          <mxGeometry width="50" height="50" relative="1" as="geometry">
            <mxPoint x="640" y="1720" as="sourcePoint" />
            <mxPoint x="690" y="1670" as="targetPoint" />
            <Array as="points" />
          </mxGeometry>
        </mxCell>
        <mxCell id="eZMzoH8xPnQWHPTHyq96-1975" value="" style="curved=1;endArrow=none;html=1;endFill=0;exitX=1;exitY=0.5;exitDx=0;exitDy=0;entryX=0.5;entryY=0;entryDx=0;entryDy=0;fillColor=#fff2cc;strokeColor=#d6b656;" parent="1" source="eZMzoH8xPnQWHPTHyq96-1875" target="eZMzoH8xPnQWHPTHyq96-1876" edge="1">
          <mxGeometry width="50" height="50" relative="1" as="geometry">
            <mxPoint x="860" y="1670" as="sourcePoint" />
            <mxPoint x="910" y="1620" as="targetPoint" />
            <Array as="points">
              <mxPoint x="870" y="1650" />
            </Array>
          </mxGeometry>
        </mxCell>
        <mxCell id="eZMzoH8xPnQWHPTHyq96-1976" value="" style="curved=1;endArrow=none;html=1;endFill=0;entryX=0.5;entryY=1;entryDx=0;entryDy=0;exitX=0.5;exitY=0;exitDx=0;exitDy=0;fillColor=#fff2cc;strokeColor=#d6b656;" parent="1" source="eZMzoH8xPnQWHPTHyq96-1874" target="eZMzoH8xPnQWHPTHyq96-1873" edge="1">
          <mxGeometry width="50" height="50" relative="1" as="geometry">
            <mxPoint x="520" y="1860" as="sourcePoint" />
            <mxPoint x="570" y="1810" as="targetPoint" />
            <Array as="points" />
          </mxGeometry>
        </mxCell>
        <mxCell id="eZMzoH8xPnQWHPTHyq96-1977" value="" style="curved=1;endArrow=none;html=1;endFill=0;exitX=1;exitY=0;exitDx=0;exitDy=0;entryX=0;entryY=0.5;entryDx=0;entryDy=0;fillColor=#fff2cc;strokeColor=#d6b656;" parent="1" source="eZMzoH8xPnQWHPTHyq96-1854" target="eZMzoH8xPnQWHPTHyq96-1856" edge="1">
          <mxGeometry width="50" height="50" relative="1" as="geometry">
            <mxPoint x="2420" y="1200" as="sourcePoint" />
            <mxPoint x="2470" y="1150" as="targetPoint" />
            <Array as="points">
              <mxPoint x="2470" y="1190" />
            </Array>
          </mxGeometry>
        </mxCell>
        <mxCell id="eZMzoH8xPnQWHPTHyq96-1978" value="" style="curved=1;endArrow=none;html=1;endFill=0;entryX=1;entryY=1;entryDx=0;entryDy=0;exitX=0;exitY=0.5;exitDx=0;exitDy=0;fillColor=#fff2cc;strokeColor=#d6b656;" parent="1" source="eZMzoH8xPnQWHPTHyq96-1858" target="eZMzoH8xPnQWHPTHyq96-1854" edge="1">
          <mxGeometry width="50" height="50" relative="1" as="geometry">
            <mxPoint x="2430" y="1340" as="sourcePoint" />
            <mxPoint x="2480" y="1290" as="targetPoint" />
            <Array as="points">
              <mxPoint x="2490" y="1320" />
            </Array>
          </mxGeometry>
        </mxCell>
        <mxCell id="eZMzoH8xPnQWHPTHyq96-1979" value="" style="curved=1;endArrow=none;html=1;endFill=0;entryX=0;entryY=0.5;entryDx=0;entryDy=0;exitX=1;exitY=0;exitDx=0;exitDy=0;fillColor=#fff2cc;strokeColor=#d6b656;" parent="1" source="eZMzoH8xPnQWHPTHyq96-1855" target="eZMzoH8xPnQWHPTHyq96-1857" edge="1">
          <mxGeometry width="50" height="50" relative="1" as="geometry">
            <mxPoint x="2330" y="1620" as="sourcePoint" />
            <mxPoint x="2380" y="1570" as="targetPoint" />
            <Array as="points">
              <mxPoint x="2470" y="1390" />
            </Array>
          </mxGeometry>
        </mxCell>
        <mxCell id="eZMzoH8xPnQWHPTHyq96-1980" value="" style="curved=1;endArrow=none;html=1;endFill=0;entryX=1;entryY=1;entryDx=0;entryDy=0;exitX=0;exitY=0.5;exitDx=0;exitDy=0;fillColor=#fff2cc;strokeColor=#d6b656;" parent="1" source="eZMzoH8xPnQWHPTHyq96-1859" target="eZMzoH8xPnQWHPTHyq96-1855" edge="1">
          <mxGeometry width="50" height="50" relative="1" as="geometry">
            <mxPoint x="2310" y="1600" as="sourcePoint" />
            <mxPoint x="2360" y="1550" as="targetPoint" />
            <Array as="points">
              <mxPoint x="2410" y="1570" />
            </Array>
          </mxGeometry>
        </mxCell>
        <mxCell id="eZMzoH8xPnQWHPTHyq96-1981" value="" style="curved=1;endArrow=none;html=1;endFill=0;exitX=1;exitY=0.5;exitDx=0;exitDy=0;entryX=0;entryY=0;entryDx=0;entryDy=0;fillColor=#fff2cc;strokeColor=#d6b656;" parent="1" source="eZMzoH8xPnQWHPTHyq96-1859" target="eZMzoH8xPnQWHPTHyq96-1860" edge="1">
          <mxGeometry width="50" height="50" relative="1" as="geometry">
            <mxPoint x="2780" y="1580" as="sourcePoint" />
            <mxPoint x="2830" y="1530" as="targetPoint" />
            <Array as="points">
              <mxPoint x="2770" y="1550" />
            </Array>
          </mxGeometry>
        </mxCell>
        <mxCell id="eZMzoH8xPnQWHPTHyq96-1982" value="" style="curved=1;endArrow=none;html=1;endFill=0;entryX=0.5;entryY=1;entryDx=0;entryDy=0;exitX=0;exitY=0;exitDx=0;exitDy=0;fillColor=#fff2cc;strokeColor=#d6b656;" parent="1" source="eZMzoH8xPnQWHPTHyq96-1861" target="eZMzoH8xPnQWHPTHyq96-1859" edge="1">
          <mxGeometry width="50" height="50" relative="1" as="geometry">
            <mxPoint x="2560" y="1710" as="sourcePoint" />
            <mxPoint x="2610" y="1660" as="targetPoint" />
            <Array as="points">
              <mxPoint x="2600" y="1670" />
            </Array>
          </mxGeometry>
        </mxCell>
        <mxCell id="eZMzoH8xPnQWHPTHyq96-1983" value="" style="curved=1;endArrow=none;html=1;endFill=0;entryX=0;entryY=0.5;entryDx=0;entryDy=0;exitX=0.5;exitY=0;exitDx=0;exitDy=0;fillColor=#fff2cc;strokeColor=#d6b656;" parent="1" source="eZMzoH8xPnQWHPTHyq96-1853" target="eZMzoH8xPnQWHPTHyq96-1854" edge="1">
          <mxGeometry width="50" height="50" relative="1" as="geometry">
            <mxPoint x="1990" y="1270" as="sourcePoint" />
            <mxPoint x="2040" y="1220" as="targetPoint" />
            <Array as="points">
              <mxPoint x="2090" y="1230" />
            </Array>
          </mxGeometry>
        </mxCell>
        <mxCell id="eZMzoH8xPnQWHPTHyq96-1984" value="" style="curved=1;endArrow=none;html=1;endFill=0;entryX=0.5;entryY=1;entryDx=0;entryDy=0;exitX=0;exitY=0.5;exitDx=0;exitDy=0;fillColor=#fff2cc;strokeColor=#d6b656;" parent="1" source="eZMzoH8xPnQWHPTHyq96-1855" target="eZMzoH8xPnQWHPTHyq96-1853" edge="1">
          <mxGeometry width="50" height="50" relative="1" as="geometry">
            <mxPoint x="2060" y="1500" as="sourcePoint" />
            <mxPoint x="2110" y="1450" as="targetPoint" />
            <Array as="points">
              <mxPoint x="2090" y="1500" />
            </Array>
          </mxGeometry>
        </mxCell>
        <mxCell id="eZMzoH8xPnQWHPTHyq96-1985" value="Vegetarisch" style="ellipse;whiteSpace=wrap;html=1;rounded=1;shadow=0;fontSize=16;fontStyle=1;strokeWidth=3;fillColor=#fff2cc;spacing=5;arcSize=7;strokeColor=#d6b656;" parent="1" vertex="1">
          <mxGeometry x="970" y="2760" width="180" height="80" as="geometry" />
        </mxCell>
        <mxCell id="eZMzoH8xPnQWHPTHyq96-1986" value="Vegan" style="ellipse;whiteSpace=wrap;html=1;rounded=1;shadow=0;fontSize=16;fontStyle=1;strokeWidth=3;fillColor=#fff2cc;spacing=5;arcSize=7;strokeColor=#d6b656;" parent="1" vertex="1">
          <mxGeometry x="1170" y="2790" width="180" height="80" as="geometry" />
        </mxCell>
        <mxCell id="eZMzoH8xPnQWHPTHyq96-1988" value="Unverträglichkeit" style="ellipse;whiteSpace=wrap;html=1;rounded=1;shadow=0;fontSize=16;fontStyle=1;strokeWidth=3;fillColor=#fff2cc;spacing=5;arcSize=7;strokeColor=#d6b656;" parent="1" vertex="1">
          <mxGeometry x="2080" y="2350" width="180" height="80" as="geometry" />
        </mxCell>
        <mxCell id="eZMzoH8xPnQWHPTHyq96-1989" value="Lactose" style="ellipse;whiteSpace=wrap;html=1;rounded=1;shadow=0;fontSize=16;fontStyle=1;strokeWidth=3;fillColor=#fff2cc;spacing=5;arcSize=7;strokeColor=#d6b656;" parent="1" vertex="1">
          <mxGeometry x="2250" y="2490" width="180" height="80" as="geometry" />
        </mxCell>
        <mxCell id="eZMzoH8xPnQWHPTHyq96-1990" value="Gluten" style="ellipse;whiteSpace=wrap;html=1;rounded=1;shadow=0;fontSize=16;fontStyle=1;strokeWidth=3;fillColor=#fff2cc;spacing=5;arcSize=7;strokeColor=#d6b656;" parent="1" vertex="1">
          <mxGeometry x="2320" y="2380" width="180" height="80" as="geometry" />
        </mxCell>
        <mxCell id="eZMzoH8xPnQWHPTHyq96-1991" value="Allergien" style="ellipse;whiteSpace=wrap;html=1;rounded=1;shadow=0;fontSize=16;fontStyle=1;strokeWidth=3;fillColor=#fff2cc;spacing=5;arcSize=7;strokeColor=#d6b656;" parent="1" vertex="1">
          <mxGeometry x="2080" y="2230" width="180" height="80" as="geometry" />
        </mxCell>
        <mxCell id="eZMzoH8xPnQWHPTHyq96-1992" value="Nuss" style="ellipse;whiteSpace=wrap;html=1;rounded=1;shadow=0;fontSize=16;fontStyle=1;strokeWidth=3;fillColor=#fff2cc;spacing=5;arcSize=7;strokeColor=#d6b656;" parent="1" vertex="1">
          <mxGeometry x="2280" y="2170" width="180" height="80" as="geometry" />
        </mxCell>
        <mxCell id="eZMzoH8xPnQWHPTHyq96-1993" value="Fruktose" style="ellipse;whiteSpace=wrap;html=1;rounded=1;shadow=0;fontSize=16;fontStyle=1;strokeWidth=3;fillColor=#fff2cc;spacing=5;arcSize=7;strokeColor=#d6b656;" parent="1" vertex="1">
          <mxGeometry x="2040" y="2520" width="180" height="80" as="geometry" />
        </mxCell>
        <mxCell id="eZMzoH8xPnQWHPTHyq96-1994" value="" style="curved=1;endArrow=none;html=1;endFill=0;entryX=0;entryY=0.5;entryDx=0;entryDy=0;exitX=0.5;exitY=0;exitDx=0;exitDy=0;fillColor=#fff2cc;strokeColor=#d6b656;" parent="1" source="eZMzoH8xPnQWHPTHyq96-1991" target="eZMzoH8xPnQWHPTHyq96-1992" edge="1">
          <mxGeometry width="50" height="50" relative="1" as="geometry">
            <mxPoint x="1910" y="2170" as="sourcePoint" />
            <mxPoint x="1960" y="2120" as="targetPoint" />
            <Array as="points">
              <mxPoint x="2210" y="2200" />
            </Array>
          </mxGeometry>
        </mxCell>
        <mxCell id="eZMzoH8xPnQWHPTHyq96-1995" value="" style="curved=1;endArrow=none;html=1;endFill=0;entryX=0.5;entryY=1;entryDx=0;entryDy=0;exitX=0.5;exitY=0;exitDx=0;exitDy=0;fillColor=#fff2cc;strokeColor=#d6b656;" parent="1" source="eZMzoH8xPnQWHPTHyq96-1993" target="eZMzoH8xPnQWHPTHyq96-1988" edge="1">
          <mxGeometry width="50" height="50" relative="1" as="geometry">
            <mxPoint x="2140" y="2520" as="sourcePoint" />
            <mxPoint x="2190" y="2470" as="targetPoint" />
            <Array as="points">
              <mxPoint x="2180" y="2490" />
            </Array>
          </mxGeometry>
        </mxCell>
        <mxCell id="eZMzoH8xPnQWHPTHyq96-1996" value="" style="curved=1;endArrow=none;html=1;endFill=0;entryX=1;entryY=1;entryDx=0;entryDy=0;exitX=0;exitY=0;exitDx=0;exitDy=0;fillColor=#fff2cc;strokeColor=#d6b656;" parent="1" source="eZMzoH8xPnQWHPTHyq96-1989" target="eZMzoH8xPnQWHPTHyq96-1988" edge="1">
          <mxGeometry width="50" height="50" relative="1" as="geometry">
            <mxPoint x="2200" y="2500" as="sourcePoint" />
            <mxPoint x="2250" y="2450" as="targetPoint" />
            <Array as="points">
              <mxPoint x="2220" y="2480" />
            </Array>
          </mxGeometry>
        </mxCell>
        <mxCell id="eZMzoH8xPnQWHPTHyq96-1997" value="" style="curved=1;endArrow=none;html=1;endFill=0;exitX=1;exitY=0.5;exitDx=0;exitDy=0;entryX=0;entryY=0;entryDx=0;entryDy=0;fillColor=#fff2cc;strokeColor=#d6b656;" parent="1" source="eZMzoH8xPnQWHPTHyq96-1988" target="eZMzoH8xPnQWHPTHyq96-1990" edge="1">
          <mxGeometry width="50" height="50" relative="1" as="geometry">
            <mxPoint x="2310" y="2390" as="sourcePoint" />
            <mxPoint x="2360" y="2340" as="targetPoint" />
            <Array as="points">
              <mxPoint x="2310" y="2370" />
            </Array>
          </mxGeometry>
        </mxCell>
        <mxCell id="eZMzoH8xPnQWHPTHyq96-1998" value="" style="curved=1;endArrow=none;html=1;endFill=0;entryX=0;entryY=0.5;entryDx=0;entryDy=0;exitX=1;exitY=0;exitDx=0;exitDy=0;fillColor=#fff2cc;strokeColor=#d6b656;" parent="1" source="eZMzoH8xPnQWHPTHyq96-1886" target="eZMzoH8xPnQWHPTHyq96-1991" edge="1">
          <mxGeometry width="50" height="50" relative="1" as="geometry">
            <mxPoint x="1970" y="2280" as="sourcePoint" />
            <mxPoint x="2020" y="2230" as="targetPoint" />
            <Array as="points">
              <mxPoint x="2030" y="2270" />
            </Array>
          </mxGeometry>
        </mxCell>
        <mxCell id="eZMzoH8xPnQWHPTHyq96-1999" value="" style="curved=1;endArrow=none;html=1;endFill=0;entryX=1;entryY=1;entryDx=0;entryDy=0;exitX=0;exitY=0.5;exitDx=0;exitDy=0;fillColor=#fff2cc;strokeColor=#d6b656;" parent="1" source="eZMzoH8xPnQWHPTHyq96-1988" target="eZMzoH8xPnQWHPTHyq96-1886" edge="1">
          <mxGeometry width="50" height="50" relative="1" as="geometry">
            <mxPoint x="2040" y="2460" as="sourcePoint" />
            <mxPoint x="2090" y="2410" as="targetPoint" />
            <Array as="points">
              <mxPoint x="2030" y="2400" />
            </Array>
          </mxGeometry>
        </mxCell>
        <mxCell id="eZMzoH8xPnQWHPTHyq96-2000" value="" style="curved=1;endArrow=none;html=1;endFill=0;entryX=0;entryY=1;entryDx=0;entryDy=0;exitX=0.5;exitY=0;exitDx=0;exitDy=0;fillColor=#fff2cc;strokeColor=#d6b656;" parent="1" source="eZMzoH8xPnQWHPTHyq96-1985" target="eZMzoH8xPnQWHPTHyq96-1892" edge="1">
          <mxGeometry width="50" height="50" relative="1" as="geometry">
            <mxPoint x="1050" y="2750" as="sourcePoint" />
            <mxPoint x="1100" y="2700" as="targetPoint" />
            <Array as="points">
              <mxPoint x="1120" y="2700" />
            </Array>
          </mxGeometry>
        </mxCell>
        <mxCell id="eZMzoH8xPnQWHPTHyq96-2001" value="" style="curved=1;endArrow=none;html=1;endFill=0;entryX=0.5;entryY=1;entryDx=0;entryDy=0;exitX=0.5;exitY=0;exitDx=0;exitDy=0;fillColor=#fff2cc;strokeColor=#d6b656;" parent="1" source="eZMzoH8xPnQWHPTHyq96-1986" target="eZMzoH8xPnQWHPTHyq96-1892" edge="1">
          <mxGeometry width="50" height="50" relative="1" as="geometry">
            <mxPoint x="1210" y="2790" as="sourcePoint" />
            <mxPoint x="1260" y="2740" as="targetPoint" />
            <Array as="points">
              <mxPoint x="1290" y="2760" />
            </Array>
          </mxGeometry>
        </mxCell>
        <mxCell id="eZMzoH8xPnQWHPTHyq96-2002" value="" style="curved=1;endArrow=none;html=1;endFill=0;entryX=0;entryY=0.5;entryDx=0;entryDy=0;exitX=1;exitY=0.5;exitDx=0;exitDy=0;fillColor=#fff2cc;strokeColor=#d6b656;" parent="1" source="eZMzoH8xPnQWHPTHyq96-1890" target="eZMzoH8xPnQWHPTHyq96-1883" edge="1">
          <mxGeometry width="50" height="50" relative="1" as="geometry">
            <mxPoint x="1040" y="2390" as="sourcePoint" />
            <mxPoint x="1090" y="2340" as="targetPoint" />
            <Array as="points">
              <mxPoint x="1040" y="2340" />
            </Array>
          </mxGeometry>
        </mxCell>
        <mxCell id="eZMzoH8xPnQWHPTHyq96-2003" value="" style="curved=1;endArrow=none;html=1;endFill=0;exitX=1;exitY=0;exitDx=0;exitDy=0;entryX=0;entryY=0.5;entryDx=0;entryDy=0;fillColor=#fff2cc;strokeColor=#d6b656;" parent="1" source="eZMzoH8xPnQWHPTHyq96-1894" target="eZMzoH8xPnQWHPTHyq96-1883" edge="1">
          <mxGeometry width="50" height="50" relative="1" as="geometry">
            <mxPoint x="1100" y="2480" as="sourcePoint" />
            <mxPoint x="1150" y="2430" as="targetPoint" />
            <Array as="points">
              <mxPoint x="1140" y="2420" />
            </Array>
          </mxGeometry>
        </mxCell>
        <mxCell id="eZMzoH8xPnQWHPTHyq96-2004" value="" style="curved=1;endArrow=none;html=1;endFill=0;exitX=1;exitY=0.5;exitDx=0;exitDy=0;entryX=0;entryY=0.5;entryDx=0;entryDy=0;fillColor=#fff2cc;strokeColor=#d6b656;" parent="1" source="eZMzoH8xPnQWHPTHyq96-1883" target="eZMzoH8xPnQWHPTHyq96-1886" edge="1">
          <mxGeometry width="50" height="50" relative="1" as="geometry">
            <mxPoint x="1520" y="2370" as="sourcePoint" />
            <mxPoint x="1570" y="2320" as="targetPoint" />
            <Array as="points">
              <mxPoint x="1650" y="2310" />
            </Array>
          </mxGeometry>
        </mxCell>
        <mxCell id="eZMzoH8xPnQWHPTHyq96-2005" value="" style="curved=1;endArrow=none;html=1;endFill=0;entryX=1;entryY=0.5;entryDx=0;entryDy=0;exitX=0;exitY=0.5;exitDx=0;exitDy=0;fillColor=#fff2cc;strokeColor=#d6b656;" parent="1" source="eZMzoH8xPnQWHPTHyq96-1882" target="eZMzoH8xPnQWHPTHyq96-1883" edge="1">
          <mxGeometry width="50" height="50" relative="1" as="geometry">
            <mxPoint x="1470" y="2460" as="sourcePoint" />
            <mxPoint x="1520" y="2410" as="targetPoint" />
            <Array as="points">
              <mxPoint x="1630" y="2420" />
            </Array>
          </mxGeometry>
        </mxCell>
        <mxCell id="eZMzoH8xPnQWHPTHyq96-2006" value="" style="curved=1;endArrow=none;html=1;endFill=0;entryX=1;entryY=1;entryDx=0;entryDy=0;exitX=0;exitY=0.5;exitDx=0;exitDy=0;fillColor=#fff2cc;strokeColor=#d6b656;" parent="1" source="eZMzoH8xPnQWHPTHyq96-1887" target="eZMzoH8xPnQWHPTHyq96-1883" edge="1">
          <mxGeometry width="50" height="50" relative="1" as="geometry">
            <mxPoint x="1360" y="2460" as="sourcePoint" />
            <mxPoint x="1410" y="2410" as="targetPoint" />
            <Array as="points">
              <mxPoint x="1560" y="2460" />
            </Array>
          </mxGeometry>
        </mxCell>
        <mxCell id="eZMzoH8xPnQWHPTHyq96-2007" value="" style="curved=1;endArrow=none;html=1;endFill=0;entryX=0;entryY=1;entryDx=0;entryDy=0;exitX=1;exitY=0;exitDx=0;exitDy=0;fillColor=#fff2cc;strokeColor=#d6b656;" parent="1" source="eZMzoH8xPnQWHPTHyq96-1891" target="eZMzoH8xPnQWHPTHyq96-1883" edge="1">
          <mxGeometry width="50" height="50" relative="1" as="geometry">
            <mxPoint x="1250" y="2410" as="sourcePoint" />
            <mxPoint x="1300" y="2360" as="targetPoint" />
            <Array as="points">
              <mxPoint x="1250" y="2380" />
            </Array>
          </mxGeometry>
        </mxCell>
        <mxCell id="eZMzoH8xPnQWHPTHyq96-2008" value="" style="curved=1;endArrow=none;html=1;endFill=0;entryX=0;entryY=1;entryDx=0;entryDy=0;exitX=0.5;exitY=0;exitDx=0;exitDy=0;fillColor=#fff2cc;strokeColor=#d6b656;" parent="1" source="eZMzoH8xPnQWHPTHyq96-1892" target="eZMzoH8xPnQWHPTHyq96-1883" edge="1">
          <mxGeometry width="50" height="50" relative="1" as="geometry">
            <mxPoint x="1340" y="2470" as="sourcePoint" />
            <mxPoint x="1390" y="2420" as="targetPoint" />
            <Array as="points">
              <mxPoint x="1350" y="2450" />
            </Array>
          </mxGeometry>
        </mxCell>
        <mxCell id="eZMzoH8xPnQWHPTHyq96-2009" value="" style="curved=1;endArrow=none;html=1;endFill=0;entryX=1;entryY=1;entryDx=0;entryDy=0;exitX=0.5;exitY=0;exitDx=0;exitDy=0;fillColor=#fff2cc;strokeColor=#d6b656;" parent="1" source="eZMzoH8xPnQWHPTHyq96-1885" target="eZMzoH8xPnQWHPTHyq96-1883" edge="1">
          <mxGeometry width="50" height="50" relative="1" as="geometry">
            <mxPoint x="1420" y="2460" as="sourcePoint" />
            <mxPoint x="1470" y="2410" as="targetPoint" />
            <Array as="points">
              <mxPoint x="1440" y="2450" />
            </Array>
          </mxGeometry>
        </mxCell>
        <mxCell id="eZMzoH8xPnQWHPTHyq96-2010" value="" style="curved=1;endArrow=none;html=1;endFill=0;entryX=0.5;entryY=1;entryDx=0;entryDy=0;exitX=0.5;exitY=0;exitDx=0;exitDy=0;fillColor=#fff2cc;strokeColor=#d6b656;" parent="1" source="eZMzoH8xPnQWHPTHyq96-1893" target="eZMzoH8xPnQWHPTHyq96-1883" edge="1">
          <mxGeometry width="50" height="50" relative="1" as="geometry">
            <mxPoint x="1380" y="2430" as="sourcePoint" />
            <mxPoint x="1430" y="2380" as="targetPoint" />
            <Array as="points">
              <mxPoint x="1390" y="2420" />
            </Array>
          </mxGeometry>
        </mxCell>
        <mxCell id="eZMzoH8xPnQWHPTHyq96-2011" value="" style="curved=1;endArrow=none;html=1;endFill=0;entryX=0.5;entryY=1;entryDx=0;entryDy=0;exitX=0.5;exitY=0;exitDx=0;exitDy=0;fillColor=#fff2cc;strokeColor=#d6b656;" parent="1" source="eZMzoH8xPnQWHPTHyq96-1883" target="eZMzoH8xPnQWHPTHyq96-1881" edge="1">
          <mxGeometry width="50" height="50" relative="1" as="geometry">
            <mxPoint x="1250" y="2130" as="sourcePoint" />
            <mxPoint x="1300" y="2080" as="targetPoint" />
            <Array as="points" />
          </mxGeometry>
        </mxCell>
        <mxCell id="eZMzoH8xPnQWHPTHyq96-2012" value="" style="curved=1;endArrow=none;html=1;endFill=0;entryX=0.5;entryY=1;entryDx=0;entryDy=0;exitX=0.5;exitY=0;exitDx=0;exitDy=0;fillColor=#fff2cc;strokeColor=#d6b656;" parent="1" source="eZMzoH8xPnQWHPTHyq96-1881" target="eZMzoH8xPnQWHPTHyq96-1880" edge="1">
          <mxGeometry width="50" height="50" relative="1" as="geometry">
            <mxPoint x="1290" y="1950" as="sourcePoint" />
            <mxPoint x="1340" y="1900" as="targetPoint" />
            <Array as="points" />
          </mxGeometry>
        </mxCell>
        <mxCell id="eZMzoH8xPnQWHPTHyq96-2013" value="" style="curved=1;endArrow=none;html=1;endFill=0;entryX=1;entryY=1;entryDx=0;entryDy=0;exitX=0;exitY=0;exitDx=0;exitDy=0;fillColor=#fff2cc;strokeColor=#d6b656;" parent="1" source="eZMzoH8xPnQWHPTHyq96-1879" target="eZMzoH8xPnQWHPTHyq96-1878" edge="1">
          <mxGeometry width="50" height="50" relative="1" as="geometry">
            <mxPoint x="1640" y="1920" as="sourcePoint" />
            <mxPoint x="1690" y="1870" as="targetPoint" />
            <Array as="points" />
          </mxGeometry>
        </mxCell>
        <mxCell id="eZMzoH8xPnQWHPTHyq96-2014" value="" style="curved=1;endArrow=none;html=1;endFill=0;entryX=0;entryY=1;entryDx=0;entryDy=0;exitX=1;exitY=0;exitDx=0;exitDy=0;fillColor=#fff2cc;strokeColor=#d6b656;" parent="1" source="eZMzoH8xPnQWHPTHyq96-1872" target="eZMzoH8xPnQWHPTHyq96-1833" edge="1">
          <mxGeometry width="50" height="50" relative="1" as="geometry">
            <mxPoint x="1250" y="1710" as="sourcePoint" />
            <mxPoint x="1300" y="1660" as="targetPoint" />
            <Array as="points">
              <mxPoint x="1320" y="1690" />
            </Array>
          </mxGeometry>
        </mxCell>
        <mxCell id="eZMzoH8xPnQWHPTHyq96-2015" value="" style="curved=1;endArrow=none;html=1;endFill=0;entryX=0.5;entryY=1;entryDx=0;entryDy=0;exitX=0.5;exitY=0;exitDx=0;exitDy=0;fillColor=#fff2cc;strokeColor=#d6b656;" parent="1" source="eZMzoH8xPnQWHPTHyq96-1880" target="eZMzoH8xPnQWHPTHyq96-1833" edge="1">
          <mxGeometry width="50" height="50" relative="1" as="geometry">
            <mxPoint x="1440" y="1770" as="sourcePoint" />
            <mxPoint x="1490" y="1720" as="targetPoint" />
            <Array as="points">
              <mxPoint x="1440" y="1720.0000000000002" />
            </Array>
          </mxGeometry>
        </mxCell>
        <mxCell id="eZMzoH8xPnQWHPTHyq96-2016" value="" style="curved=1;endArrow=none;html=1;endFill=0;entryX=1;entryY=1;entryDx=0;entryDy=0;exitX=0;exitY=0;exitDx=0;exitDy=0;fillColor=#fff2cc;strokeColor=#d6b656;" parent="1" source="eZMzoH8xPnQWHPTHyq96-1878" target="eZMzoH8xPnQWHPTHyq96-1833" edge="1">
          <mxGeometry width="50" height="50" relative="1" as="geometry">
            <mxPoint x="1520" y="1740" as="sourcePoint" />
            <mxPoint x="1570" y="1690" as="targetPoint" />
            <Array as="points">
              <mxPoint x="1544" y="1740" />
            </Array>
          </mxGeometry>
        </mxCell>
        <mxCell id="eZMzoH8xPnQWHPTHyq96-2017" value="" style="curved=1;endArrow=none;html=1;endFill=0;entryX=1;entryY=0.5;entryDx=0;entryDy=0;exitX=0;exitY=0.5;exitDx=0;exitDy=0;fillColor=#fff2cc;strokeColor=#d6b656;" parent="1" source="eZMzoH8xPnQWHPTHyq96-1877" target="eZMzoH8xPnQWHPTHyq96-1833" edge="1">
          <mxGeometry width="50" height="50" relative="1" as="geometry">
            <mxPoint x="1620" y="1720" as="sourcePoint" />
            <mxPoint x="1670" y="1670" as="targetPoint" />
            <Array as="points">
              <mxPoint x="1620" y="1670.0000000000002" />
            </Array>
          </mxGeometry>
        </mxCell>
        <mxCell id="eZMzoH8xPnQWHPTHyq96-2018" value="Zutatenliste" style="ellipse;whiteSpace=wrap;html=1;rounded=1;shadow=0;fontSize=16;fontStyle=1;strokeWidth=3;fillColor=#fff2cc;spacing=5;arcSize=7;strokeColor=#d6b656;" parent="1" vertex="1">
          <mxGeometry x="30" y="1900" width="180" height="80" as="geometry" />
        </mxCell>
        <mxCell id="eZMzoH8xPnQWHPTHyq96-2019" value="" style="curved=1;endArrow=none;html=1;endFill=0;entryX=1;entryY=1;entryDx=0;entryDy=0;exitX=0;exitY=0;exitDx=0;exitDy=0;fillColor=#fff2cc;strokeColor=#d6b656;" parent="1" source="eZMzoH8xPnQWHPTHyq96-1872" target="eZMzoH8xPnQWHPTHyq96-1834" edge="1">
          <mxGeometry width="50" height="50" relative="1" as="geometry">
            <mxPoint x="230" y="1910" as="sourcePoint" />
            <mxPoint x="280" y="1860" as="targetPoint" />
            <Array as="points">
              <mxPoint x="230" y="1860.0000000000002" />
            </Array>
          </mxGeometry>
        </mxCell>
        <mxCell id="eZMzoH8xPnQWHPTHyq96-2020" value="" style="curved=1;endArrow=none;html=1;endFill=0;exitX=1;exitY=0.5;exitDx=0;exitDy=0;entryX=0;entryY=0;entryDx=0;entryDy=0;fillColor=#fff2cc;strokeColor=#d6b656;" parent="1" source="eZMzoH8xPnQWHPTHyq96-1834" target="eZMzoH8xPnQWHPTHyq96-1875" edge="1">
          <mxGeometry width="50" height="50" relative="1" as="geometry">
            <mxPoint x="440" y="1570" as="sourcePoint" />
            <mxPoint x="490" y="1520" as="targetPoint" />
            <Array as="points">
              <mxPoint x="440" y="1520.0000000000002" />
            </Array>
          </mxGeometry>
        </mxCell>
        <mxCell id="eZMzoH8xPnQWHPTHyq96-2021" value="" style="curved=1;endArrow=none;html=1;endFill=0;entryX=0;entryY=0;entryDx=0;entryDy=0;exitX=1;exitY=0;exitDx=0;exitDy=0;fillColor=#fff2cc;strokeColor=#d6b656;" parent="1" source="eZMzoH8xPnQWHPTHyq96-1875" target="eZMzoH8xPnQWHPTHyq96-1833" edge="1">
          <mxGeometry width="50" height="50" relative="1" as="geometry">
            <mxPoint x="1210" y="1590" as="sourcePoint" />
            <mxPoint x="1260" y="1540" as="targetPoint" />
            <Array as="points">
              <mxPoint x="1130" y="1510" />
            </Array>
          </mxGeometry>
        </mxCell>
        <mxCell id="eZMzoH8xPnQWHPTHyq96-2023" value="" style="curved=1;endArrow=none;html=1;endFill=0;entryX=0;entryY=1;entryDx=0;entryDy=0;exitX=0.5;exitY=0;exitDx=0;exitDy=0;fillColor=#fff2cc;strokeColor=#d6b656;" parent="1" source="eZMzoH8xPnQWHPTHyq96-1834" target="eZMzoH8xPnQWHPTHyq96-1831" edge="1">
          <mxGeometry width="50" height="50" relative="1" as="geometry">
            <mxPoint x="500" y="1340" as="sourcePoint" />
            <mxPoint x="550" y="1290" as="targetPoint" />
            <Array as="points">
              <mxPoint x="300" y="1250" />
            </Array>
          </mxGeometry>
        </mxCell>
        <mxCell id="eZMzoH8xPnQWHPTHyq96-2024" value="" style="curved=1;endArrow=none;html=1;endFill=0;entryX=1;entryY=1;entryDx=0;entryDy=0;exitX=0.5;exitY=0;exitDx=0;exitDy=0;fillColor=#fff2cc;strokeColor=#d6b656;" parent="1" source="eZMzoH8xPnQWHPTHyq96-1833" target="eZMzoH8xPnQWHPTHyq96-1831" edge="1">
          <mxGeometry width="50" height="50" relative="1" as="geometry">
            <mxPoint x="830" y="1340" as="sourcePoint" />
            <mxPoint x="880" y="1290" as="targetPoint" />
            <Array as="points">
              <mxPoint x="1130" y="1230" />
            </Array>
          </mxGeometry>
        </mxCell>
        <mxCell id="eZMzoH8xPnQWHPTHyq96-2025" value="" style="curved=1;endArrow=none;html=1;endFill=0;entryX=0;entryY=0;entryDx=0;entryDy=0;exitX=1;exitY=0.5;exitDx=0;exitDy=0;fillColor=#fff2cc;strokeColor=#d6b656;" parent="1" source="eZMzoH8xPnQWHPTHyq96-1907" target="eZMzoH8xPnQWHPTHyq96-1834" edge="1">
          <mxGeometry width="50" height="50" relative="1" as="geometry">
            <mxPoint x="-80" y="1560" as="sourcePoint" />
            <mxPoint x="-30" y="1510" as="targetPoint" />
            <Array as="points">
              <mxPoint x="-80" y="1510.0000000000002" />
            </Array>
          </mxGeometry>
        </mxCell>
        <mxCell id="eZMzoH8xPnQWHPTHyq96-2027" value="" style="curved=1;endArrow=none;html=1;endFill=0;entryX=0;entryY=0.5;entryDx=0;entryDy=0;exitX=0.5;exitY=0;exitDx=0;exitDy=0;fillColor=#fff2cc;strokeColor=#d6b656;" parent="1" source="eZMzoH8xPnQWHPTHyq96-1895" target="eZMzoH8xPnQWHPTHyq96-1834" edge="1">
          <mxGeometry width="50" height="50" relative="1" as="geometry">
            <mxPoint x="-210" y="1620" as="sourcePoint" />
            <mxPoint x="-160" y="1570" as="targetPoint" />
            <Array as="points">
              <mxPoint x="-80" y="1600" />
            </Array>
          </mxGeometry>
        </mxCell>
        <mxCell id="eZMzoH8xPnQWHPTHyq96-2028" value="" style="curved=1;endArrow=none;html=1;endFill=0;entryX=0;entryY=0;entryDx=0;entryDy=0;exitX=1;exitY=0.5;exitDx=0;exitDy=0;fillColor=#fff2cc;strokeColor=#d6b656;" parent="1" source="eZMzoH8xPnQWHPTHyq96-1901" target="eZMzoH8xPnQWHPTHyq96-1895" edge="1">
          <mxGeometry width="50" height="50" relative="1" as="geometry">
            <mxPoint x="-330" y="1720" as="sourcePoint" />
            <mxPoint x="-280" y="1670" as="targetPoint" />
            <Array as="points">
              <mxPoint x="-250" y="1590" />
            </Array>
          </mxGeometry>
        </mxCell>
        <mxCell id="eZMzoH8xPnQWHPTHyq96-2029" value="" style="curved=1;endArrow=none;html=1;endFill=0;entryX=0;entryY=0.5;entryDx=0;entryDy=0;exitX=1;exitY=0;exitDx=0;exitDy=0;fillColor=#fff2cc;strokeColor=#d6b656;" parent="1" source="eZMzoH8xPnQWHPTHyq96-1896" target="eZMzoH8xPnQWHPTHyq96-1895" edge="1">
          <mxGeometry width="50" height="50" relative="1" as="geometry">
            <mxPoint x="-240" y="1770" as="sourcePoint" />
            <mxPoint x="-190" y="1720" as="targetPoint" />
            <Array as="points">
              <mxPoint x="-280" y="1660" />
            </Array>
          </mxGeometry>
        </mxCell>
        <mxCell id="eZMzoH8xPnQWHPTHyq96-2030" value="" style="curved=1;endArrow=none;html=1;endFill=0;entryX=0;entryY=1;entryDx=0;entryDy=0;exitX=0.5;exitY=0;exitDx=0;exitDy=0;fillColor=#fff2cc;strokeColor=#d6b656;" parent="1" source="eZMzoH8xPnQWHPTHyq96-1897" target="eZMzoH8xPnQWHPTHyq96-1895" edge="1">
          <mxGeometry width="50" height="50" relative="1" as="geometry">
            <mxPoint x="-250" y="1790" as="sourcePoint" />
            <mxPoint x="-200" y="1740" as="targetPoint" />
            <Array as="points">
              <mxPoint x="-250" y="1740.0000000000002" />
            </Array>
          </mxGeometry>
        </mxCell>
        <mxCell id="eZMzoH8xPnQWHPTHyq96-2031" value="" style="curved=1;endArrow=none;html=1;endFill=0;entryX=0.5;entryY=1;entryDx=0;entryDy=0;exitX=0.5;exitY=0;exitDx=0;exitDy=0;fillColor=#fff2cc;strokeColor=#d6b656;" parent="1" source="eZMzoH8xPnQWHPTHyq96-1898" target="eZMzoH8xPnQWHPTHyq96-1895" edge="1">
          <mxGeometry width="50" height="50" relative="1" as="geometry">
            <mxPoint x="-90" y="1840" as="sourcePoint" />
            <mxPoint x="-40" y="1790" as="targetPoint" />
            <Array as="points">
              <mxPoint x="-90" y="1790.0000000000002" />
            </Array>
          </mxGeometry>
        </mxCell>
        <mxCell id="eZMzoH8xPnQWHPTHyq96-2032" value="" style="curved=1;endArrow=none;html=1;endFill=0;entryX=1;entryY=1;entryDx=0;entryDy=0;exitX=0.5;exitY=0;exitDx=0;exitDy=0;fillColor=#fff2cc;strokeColor=#d6b656;" parent="1" source="eZMzoH8xPnQWHPTHyq96-2018" target="eZMzoH8xPnQWHPTHyq96-1895" edge="1">
          <mxGeometry width="50" height="50" relative="1" as="geometry">
            <mxPoint x="70" y="1840" as="sourcePoint" />
            <mxPoint x="120" y="1790" as="targetPoint" />
            <Array as="points">
              <mxPoint x="80" y="1780" />
            </Array>
          </mxGeometry>
        </mxCell>
        <mxCell id="eZMzoH8xPnQWHPTHyq96-2033" value="Bilder" style="ellipse;whiteSpace=wrap;html=1;rounded=1;shadow=0;fontSize=16;fontStyle=1;strokeWidth=3;fillColor=#fff2cc;spacing=5;arcSize=7;strokeColor=#d6b656;" parent="1" vertex="1">
          <mxGeometry x="-1010" y="1550" width="180" height="80" as="geometry" />
        </mxCell>
        <mxCell id="eZMzoH8xPnQWHPTHyq96-2034" value="" style="curved=1;endArrow=none;html=1;endFill=0;exitX=1;exitY=0;exitDx=0;exitDy=0;entryX=0;entryY=0;entryDx=0;entryDy=0;fillColor=#fff2cc;strokeColor=#d6b656;" parent="1" source="eZMzoH8xPnQWHPTHyq96-2033" target="eZMzoH8xPnQWHPTHyq96-1902" edge="1">
          <mxGeometry width="50" height="50" relative="1" as="geometry">
            <mxPoint x="-800" y="1530" as="sourcePoint" />
            <mxPoint x="-750" y="1480" as="targetPoint" />
            <Array as="points">
              <mxPoint x="-810" y="1520" />
            </Array>
          </mxGeometry>
        </mxCell>
        <mxCell id="eZMzoH8xPnQWHPTHyq96-2035" value="" style="curved=1;endArrow=none;html=1;endFill=0;exitX=1;exitY=0;exitDx=0;exitDy=0;entryX=0;entryY=0;entryDx=0;entryDy=0;fillColor=#fff2cc;strokeColor=#d6b656;" parent="1" source="eZMzoH8xPnQWHPTHyq96-1902" target="eZMzoH8xPnQWHPTHyq96-1901" edge="1">
          <mxGeometry width="50" height="50" relative="1" as="geometry">
            <mxPoint x="-620" y="1540" as="sourcePoint" />
            <mxPoint x="-570" y="1490" as="targetPoint" />
            <Array as="points">
              <mxPoint x="-570" y="1530" />
            </Array>
          </mxGeometry>
        </mxCell>
        <mxCell id="eZMzoH8xPnQWHPTHyq96-2036" value="" style="curved=1;endArrow=none;html=1;endFill=0;exitX=0.5;exitY=0;exitDx=0;exitDy=0;entryX=1;entryY=1;entryDx=0;entryDy=0;fillColor=#fff2cc;strokeColor=#d6b656;" parent="1" source="eZMzoH8xPnQWHPTHyq96-2033" target="eZMzoH8xPnQWHPTHyq96-1903" edge="1">
          <mxGeometry width="50" height="50" relative="1" as="geometry">
            <mxPoint x="-880" y="1490" as="sourcePoint" />
            <mxPoint x="-830" y="1440" as="targetPoint" />
            <Array as="points">
              <mxPoint x="-950" y="1490" />
            </Array>
          </mxGeometry>
        </mxCell>
        <mxCell id="eZMzoH8xPnQWHPTHyq96-2037" value="" style="curved=1;endArrow=none;html=1;endFill=0;entryX=0.5;entryY=1;entryDx=0;entryDy=0;exitX=1;exitY=0.5;exitDx=0;exitDy=0;fillColor=#fff2cc;strokeColor=#d6b656;" parent="1" source="eZMzoH8xPnQWHPTHyq96-1905" target="eZMzoH8xPnQWHPTHyq96-2033" edge="1">
          <mxGeometry width="50" height="50" relative="1" as="geometry">
            <mxPoint x="-940" y="1730" as="sourcePoint" />
            <mxPoint x="-890" y="1680" as="targetPoint" />
            <Array as="points">
              <mxPoint x="-920" y="1680" />
            </Array>
          </mxGeometry>
        </mxCell>
        <mxCell id="eZMzoH8xPnQWHPTHyq96-2038" value="" style="curved=1;endArrow=none;html=1;endFill=0;entryX=0;entryY=0.5;entryDx=0;entryDy=0;exitX=1;exitY=0.5;exitDx=0;exitDy=0;fillColor=#fff2cc;strokeColor=#d6b656;" parent="1" source="eZMzoH8xPnQWHPTHyq96-1904" target="eZMzoH8xPnQWHPTHyq96-2033" edge="1">
          <mxGeometry width="50" height="50" relative="1" as="geometry">
            <mxPoint x="-1220" y="1690" as="sourcePoint" />
            <mxPoint x="-1170" y="1640" as="targetPoint" />
            <Array as="points" />
          </mxGeometry>
        </mxCell>
        <mxCell id="eZMzoH8xPnQWHPTHyq96-2039" value="" style="curved=1;endArrow=none;html=1;endFill=0;entryX=0.5;entryY=1;entryDx=0;entryDy=0;exitX=0;exitY=0;exitDx=0;exitDy=0;fillColor=#fff2cc;strokeColor=#d6b656;" parent="1" source="eZMzoH8xPnQWHPTHyq96-1832" target="eZMzoH8xPnQWHPTHyq96-1898" edge="1">
          <mxGeometry width="50" height="50" relative="1" as="geometry">
            <mxPoint x="-180" y="2040" as="sourcePoint" />
            <mxPoint x="-130" y="1990" as="targetPoint" />
            <Array as="points">
              <mxPoint x="-150" y="2040" />
            </Array>
          </mxGeometry>
        </mxCell>
        <mxCell id="eZMzoH8xPnQWHPTHyq96-2040" value="" style="curved=1;endArrow=none;html=1;endFill=0;entryX=0.5;entryY=1;entryDx=0;entryDy=0;exitX=1;exitY=0;exitDx=0;exitDy=0;fillColor=#fff2cc;strokeColor=#d6b656;" parent="1" source="eZMzoH8xPnQWHPTHyq96-1832" target="eZMzoH8xPnQWHPTHyq96-2018" edge="1">
          <mxGeometry width="50" height="50" relative="1" as="geometry">
            <mxPoint x="120" y="2080" as="sourcePoint" />
            <mxPoint x="170" y="2030" as="targetPoint" />
            <Array as="points">
              <mxPoint x="120" y="2030.0000000000002" />
            </Array>
          </mxGeometry>
        </mxCell>
        <mxCell id="eZMzoH8xPnQWHPTHyq96-2041" value="" style="curved=1;endArrow=none;html=1;endFill=0;entryX=0;entryY=0.5;entryDx=0;entryDy=0;exitX=1;exitY=0.5;exitDx=0;exitDy=0;fillColor=#fff2cc;strokeColor=#d6b656;" parent="1" source="eZMzoH8xPnQWHPTHyq96-1835" target="eZMzoH8xPnQWHPTHyq96-1832" edge="1">
          <mxGeometry width="50" height="50" relative="1" as="geometry">
            <mxPoint x="-230" y="2130" as="sourcePoint" />
            <mxPoint x="-180" y="2080" as="targetPoint" />
            <Array as="points">
              <mxPoint x="-230" y="2080" />
            </Array>
          </mxGeometry>
        </mxCell>
        <mxCell id="eZMzoH8xPnQWHPTHyq96-2042" value="" style="curved=1;endArrow=none;html=1;endFill=0;entryX=0;entryY=0;entryDx=0;entryDy=0;exitX=1;exitY=1;exitDx=0;exitDy=0;fillColor=#fff2cc;strokeColor=#d6b656;" parent="1" source="eZMzoH8xPnQWHPTHyq96-1836" target="eZMzoH8xPnQWHPTHyq96-1835" edge="1">
          <mxGeometry width="50" height="50" relative="1" as="geometry">
            <mxPoint x="-550" y="2070" as="sourcePoint" />
            <mxPoint x="-500" y="2020" as="targetPoint" />
            <Array as="points">
              <mxPoint x="-550" y="2020.0000000000002" />
            </Array>
          </mxGeometry>
        </mxCell>
        <mxCell id="eZMzoH8xPnQWHPTHyq96-2043" value="" style="curved=1;endArrow=none;html=1;endFill=0;entryX=0;entryY=0.5;entryDx=0;entryDy=0;exitX=1;exitY=0;exitDx=0;exitDy=0;fillColor=#fff2cc;strokeColor=#d6b656;" parent="1" source="eZMzoH8xPnQWHPTHyq96-1837" target="eZMzoH8xPnQWHPTHyq96-1835" edge="1">
          <mxGeometry width="50" height="50" relative="1" as="geometry">
            <mxPoint x="-580" y="2130" as="sourcePoint" />
            <mxPoint x="-530" y="2080" as="targetPoint" />
            <Array as="points">
              <mxPoint x="-580" y="2080" />
            </Array>
          </mxGeometry>
        </mxCell>
        <mxCell id="eZMzoH8xPnQWHPTHyq96-2044" value="" style="curved=1;endArrow=none;html=1;endFill=0;entryX=0;entryY=1;entryDx=0;entryDy=0;exitX=1;exitY=0;exitDx=0;exitDy=0;fillColor=#fff2cc;strokeColor=#d6b656;" parent="1" source="eZMzoH8xPnQWHPTHyq96-1863" target="eZMzoH8xPnQWHPTHyq96-1832" edge="1">
          <mxGeometry width="50" height="50" relative="1" as="geometry">
            <mxPoint x="-120" y="2240" as="sourcePoint" />
            <mxPoint x="-70" y="2190" as="targetPoint" />
            <Array as="points">
              <mxPoint x="-120" y="2170" />
            </Array>
          </mxGeometry>
        </mxCell>
        <mxCell id="eZMzoH8xPnQWHPTHyq96-2045" value="" style="curved=1;endArrow=none;html=1;endFill=0;entryX=0.5;entryY=1;entryDx=0;entryDy=0;exitX=0.5;exitY=0;exitDx=0;exitDy=0;fillColor=#fff2cc;strokeColor=#d6b656;" parent="1" source="eZMzoH8xPnQWHPTHyq96-1866" target="eZMzoH8xPnQWHPTHyq96-1832" edge="1">
          <mxGeometry width="50" height="50" relative="1" as="geometry">
            <mxPoint x="-70" y="2260" as="sourcePoint" />
            <mxPoint x="-20" y="2210" as="targetPoint" />
            <Array as="points">
              <mxPoint x="-70" y="2210" />
            </Array>
          </mxGeometry>
        </mxCell>
        <mxCell id="eZMzoH8xPnQWHPTHyq96-2046" value="" style="curved=1;endArrow=none;html=1;endFill=0;exitX=1;exitY=0.5;exitDx=0;exitDy=0;entryX=0.5;entryY=0;entryDx=0;entryDy=0;fillColor=#fff2cc;strokeColor=#d6b656;" parent="1" source="eZMzoH8xPnQWHPTHyq96-1832" target="eZMzoH8xPnQWHPTHyq96-1899" edge="1">
          <mxGeometry width="50" height="50" relative="1" as="geometry">
            <mxPoint x="140" y="2110" as="sourcePoint" />
            <mxPoint x="190" y="2060" as="targetPoint" />
            <Array as="points">
              <mxPoint x="170" y="2080" />
            </Array>
          </mxGeometry>
        </mxCell>
        <mxCell id="eZMzoH8xPnQWHPTHyq96-2047" value="" style="curved=1;endArrow=none;html=1;endFill=0;exitX=0.5;exitY=1;exitDx=0;exitDy=0;entryX=0.5;entryY=0;entryDx=0;entryDy=0;fillColor=#fff2cc;strokeColor=#d6b656;" parent="1" source="eZMzoH8xPnQWHPTHyq96-1899" target="eZMzoH8xPnQWHPTHyq96-1900" edge="1">
          <mxGeometry width="50" height="50" relative="1" as="geometry">
            <mxPoint x="350" y="2310" as="sourcePoint" />
            <mxPoint x="400" y="2260" as="targetPoint" />
            <Array as="points">
              <mxPoint x="262" y="2260" />
            </Array>
          </mxGeometry>
        </mxCell>
        <mxCell id="eZMzoH8xPnQWHPTHyq96-2048" value="" style="curved=1;endArrow=none;html=1;endFill=0;entryX=0;entryY=0.5;entryDx=0;entryDy=0;exitX=1;exitY=0;exitDx=0;exitDy=0;fillColor=#fff2cc;strokeColor=#d6b656;" parent="1" source="eZMzoH8xPnQWHPTHyq96-1868" target="eZMzoH8xPnQWHPTHyq96-1866" edge="1">
          <mxGeometry width="50" height="50" relative="1" as="geometry">
            <mxPoint x="-290" y="2360" as="sourcePoint" />
            <mxPoint x="-240" y="2310" as="targetPoint" />
            <Array as="points">
              <mxPoint x="-330" y="2300" />
            </Array>
          </mxGeometry>
        </mxCell>
        <mxCell id="eZMzoH8xPnQWHPTHyq96-2049" value="" style="curved=1;endArrow=none;html=1;endFill=0;entryX=0;entryY=1;entryDx=0;entryDy=0;exitX=0.5;exitY=0;exitDx=0;exitDy=0;fillColor=#fff2cc;strokeColor=#d6b656;" parent="1" source="eZMzoH8xPnQWHPTHyq96-1865" target="eZMzoH8xPnQWHPTHyq96-1866" edge="1">
          <mxGeometry width="50" height="50" relative="1" as="geometry">
            <mxPoint x="-260" y="2420" as="sourcePoint" />
            <mxPoint x="-210" y="2370" as="targetPoint" />
            <Array as="points">
              <mxPoint x="-260" y="2370" />
            </Array>
          </mxGeometry>
        </mxCell>
        <mxCell id="eZMzoH8xPnQWHPTHyq96-2050" value="" style="curved=1;endArrow=none;html=1;endFill=0;entryX=0.5;entryY=1;entryDx=0;entryDy=0;exitX=0.5;exitY=0;exitDx=0;exitDy=0;fillColor=#fff2cc;strokeColor=#d6b656;" parent="1" source="eZMzoH8xPnQWHPTHyq96-1864" target="eZMzoH8xPnQWHPTHyq96-1866" edge="1">
          <mxGeometry width="50" height="50" relative="1" as="geometry">
            <mxPoint x="-190" y="2450" as="sourcePoint" />
            <mxPoint x="-140" y="2400" as="targetPoint" />
            <Array as="points">
              <mxPoint x="-170" y="2410" />
            </Array>
          </mxGeometry>
        </mxCell>
        <mxCell id="eZMzoH8xPnQWHPTHyq96-2051" value="" style="curved=1;endArrow=none;html=1;endFill=0;entryX=1;entryY=1;entryDx=0;entryDy=0;exitX=0.5;exitY=0;exitDx=0;exitDy=0;fillColor=#fff2cc;strokeColor=#d6b656;" parent="1" source="eZMzoH8xPnQWHPTHyq96-1862" target="eZMzoH8xPnQWHPTHyq96-1866" edge="1">
          <mxGeometry width="50" height="50" relative="1" as="geometry">
            <mxPoint x="-150" y="2430" as="sourcePoint" />
            <mxPoint x="-100" y="2380" as="targetPoint" />
            <Array as="points">
              <mxPoint x="40" y="2400" />
            </Array>
          </mxGeometry>
        </mxCell>
        <mxCell id="eZMzoH8xPnQWHPTHyq96-2052" value="" style="curved=1;endArrow=none;html=1;endFill=0;entryX=0;entryY=0;entryDx=0;entryDy=0;exitX=1;exitY=0;exitDx=0;exitDy=0;fillColor=#fff2cc;strokeColor=#d6b656;" parent="1" source="eZMzoH8xPnQWHPTHyq96-1869" target="eZMzoH8xPnQWHPTHyq96-1868" edge="1">
          <mxGeometry width="50" height="50" relative="1" as="geometry">
            <mxPoint x="-710" y="2400" as="sourcePoint" />
            <mxPoint x="-660" y="2350" as="targetPoint" />
            <Array as="points">
              <mxPoint x="-620" y="2380" />
            </Array>
          </mxGeometry>
        </mxCell>
        <mxCell id="eZMzoH8xPnQWHPTHyq96-2053" value="" style="curved=1;endArrow=none;html=1;endFill=0;exitX=1;exitY=0;exitDx=0;exitDy=0;entryX=0;entryY=0;entryDx=0;entryDy=0;fillColor=#fff2cc;strokeColor=#d6b656;" parent="1" source="eZMzoH8xPnQWHPTHyq96-1870" target="eZMzoH8xPnQWHPTHyq96-1869" edge="1">
          <mxGeometry width="50" height="50" relative="1" as="geometry">
            <mxPoint x="-880" y="2430" as="sourcePoint" />
            <mxPoint x="-830" y="2380" as="targetPoint" />
            <Array as="points">
              <mxPoint x="-890" y="2420" />
            </Array>
          </mxGeometry>
        </mxCell>
        <mxCell id="eZMzoH8xPnQWHPTHyq96-2054" value="" style="curved=1;endArrow=none;html=1;endFill=0;exitX=1;exitY=0;exitDx=0;exitDy=0;entryX=0;entryY=0.5;entryDx=0;entryDy=0;fillColor=#fff2cc;strokeColor=#d6b656;" parent="1" source="eZMzoH8xPnQWHPTHyq96-1833" target="eZMzoH8xPnQWHPTHyq96-1853" edge="1">
          <mxGeometry width="50" height="50" relative="1" as="geometry">
            <mxPoint x="1580" y="1420" as="sourcePoint" />
            <mxPoint x="1630" y="1370" as="targetPoint" />
            <Array as="points">
              <mxPoint x="1580" y="1370.0000000000002" />
            </Array>
          </mxGeometry>
        </mxCell>
        <mxCell id="eZMzoH8xPnQWHPTHyq96-2055" value="" style="curved=1;endArrow=none;html=1;strokeColor=#416BE0;endFill=0;exitX=1;exitY=0.5;exitDx=0;exitDy=0;entryX=0;entryY=0.5;entryDx=0;entryDy=0;" parent="1" source="eZMzoH8xPnQWHPTHyq96-1788" target="1749" edge="1">
          <mxGeometry width="50" height="50" relative="1" as="geometry">
            <mxPoint x="210" y="460" as="sourcePoint" />
            <mxPoint x="260" y="410" as="targetPoint" />
            <Array as="points">
              <mxPoint x="210" y="410.0000000000002" />
            </Array>
          </mxGeometry>
        </mxCell>
        <mxCell id="eZMzoH8xPnQWHPTHyq96-2056" value="" style="curved=1;endArrow=none;html=1;strokeColor=#416BE0;endFill=0;entryX=0.5;entryY=1;entryDx=0;entryDy=0;exitX=0.5;exitY=0;exitDx=0;exitDy=0;" parent="1" source="eZMzoH8xPnQWHPTHyq96-1831" target="1749" edge="1">
          <mxGeometry width="50" height="50" relative="1" as="geometry">
            <mxPoint x="470" y="920" as="sourcePoint" />
            <mxPoint x="520" y="870" as="targetPoint" />
            <Array as="points">
              <mxPoint x="470" y="870.0000000000002" />
            </Array>
          </mxGeometry>
        </mxCell>
        <mxCell id="eZMzoH8xPnQWHPTHyq96-2057" value="" style="curved=1;endArrow=none;html=1;strokeColor=#416BE0;endFill=0;entryX=0;entryY=0.5;entryDx=0;entryDy=0;" parent="1" source="1749" target="eZMzoH8xPnQWHPTHyq96-1956" edge="1">
          <mxGeometry width="50" height="50" relative="1" as="geometry">
            <mxPoint x="1260" y="460" as="sourcePoint" />
            <mxPoint x="1310" y="410" as="targetPoint" />
            <Array as="points">
              <mxPoint x="1340" y="350" />
            </Array>
          </mxGeometry>
        </mxCell>
        <mxCell id="eZMzoH8xPnQWHPTHyq96-2058" value="" style="curved=1;endArrow=none;html=1;strokeColor=#416BE0;endFill=0;exitX=1;exitY=0.75;exitDx=0;exitDy=0;entryX=0;entryY=0.5;entryDx=0;entryDy=0;" parent="1" source="1749" target="eZMzoH8xPnQWHPTHyq96-1955" edge="1">
          <mxGeometry width="50" height="50" relative="1" as="geometry">
            <mxPoint x="1390" y="620" as="sourcePoint" />
            <mxPoint x="1440" y="570" as="targetPoint" />
            <Array as="points">
              <mxPoint x="1230" y="660" />
            </Array>
          </mxGeometry>
        </mxCell>
        <mxCell id="eZMzoH8xPnQWHPTHyq96-2059" value="" style="curved=1;endArrow=none;html=1;strokeColor=#416BE0;endFill=0;entryX=0.5;entryY=1;entryDx=0;entryDy=0;exitX=0.25;exitY=0;exitDx=0;exitDy=0;" parent="1" source="1749" target="eZMzoH8xPnQWHPTHyq96-1799" edge="1">
          <mxGeometry width="50" height="50" relative="1" as="geometry">
            <mxPoint x="510" y="230" as="sourcePoint" />
            <mxPoint x="560" y="180" as="targetPoint" />
            <Array as="points">
              <mxPoint x="510" y="180.00000000000023" />
            </Array>
          </mxGeometry>
        </mxCell>
        <mxCell id="eZMzoH8xPnQWHPTHyq96-2060" value="" style="curved=1;endArrow=none;html=1;strokeColor=#416BE0;endFill=0;exitX=0.75;exitY=0;exitDx=0;exitDy=0;entryX=0.5;entryY=1;entryDx=0;entryDy=0;" parent="1" source="1749" target="eZMzoH8xPnQWHPTHyq96-1785" edge="1">
          <mxGeometry width="50" height="50" relative="1" as="geometry">
            <mxPoint x="730" y="240" as="sourcePoint" />
            <mxPoint x="780" y="190" as="targetPoint" />
            <Array as="points">
              <mxPoint x="730" y="190.00000000000023" />
            </Array>
          </mxGeometry>
        </mxCell>
      </root>
    </mxGraphModel>
  </diagram>
</mxfile>
